<svg width="30" height="29" viewBox="0 0 30 29" fill="none" xmlns="http://www.w3.org/2000/svg">
<path d="M13.3723 0.100566C6.68879 0.827038 1.3129 6.20293 0.586423 12.7412C-0.140048 19.57 3.7829 25.6724 9.73997 27.9971C10.1759 28.1424 10.6117 27.8518 10.6117 27.2706V24.9459C10.6117 24.9459 10.0306 25.0912 9.30409 25.0912C7.26996 25.0912 6.3982 23.3477 6.2529 22.3306C6.10761 21.7494 5.81702 21.3135 5.38114 20.8777C4.94525 20.7324 4.79996 20.7324 4.79996 20.5871C4.79996 20.2965 5.23584 20.2965 5.38114 20.2965C6.2529 20.2965 6.97937 21.3135 7.26996 21.7494C7.99644 22.9118 8.8682 23.2024 9.30409 23.2024C9.88526 23.2024 10.3211 23.0571 10.6117 22.9118C10.757 21.8947 11.1929 20.8777 12.0647 20.2965C8.72291 19.57 6.2529 17.6812 6.2529 14.4847C6.2529 12.8865 6.97937 11.2882 7.99644 10.1259C7.85114 9.83529 7.70585 9.10881 7.70585 8.09175C7.70585 7.51058 7.70585 6.63881 8.14173 5.76705C8.14173 5.76705 10.1759 5.76705 12.21 7.65587C12.9364 7.36528 13.9535 7.21999 14.9706 7.21999C15.9876 7.21999 17.0047 7.36528 17.8765 7.65587C19.7653 5.76705 21.9447 5.76705 21.9447 5.76705C22.2353 6.63881 22.2353 7.51058 22.2353 8.09175C22.2353 9.25411 22.09 9.83529 21.9447 10.1259C22.9618 11.2882 23.6882 12.7412 23.6882 14.4847C23.6882 17.6812 21.2182 19.57 17.8765 20.2965C18.7482 21.0229 19.3294 22.3306 19.3294 23.6382V27.4159C19.3294 27.8518 19.7653 28.2877 20.3465 28.1424C25.7223 25.963 29.5 20.7324 29.5 14.63C29.5 5.91234 22.09 -0.916494 13.3723 0.100566Z" fill="#623AE9"/>
</svg>
