<svg width="30" height="30" viewBox="0 0 30 30" fill="none" xmlns="http://www.w3.org/2000/svg">
<path d="M3.33333 0C1.49167 0 0 1.49167 0 3.33333V26.6667C0 28.5083 1.49167 30 3.33333 30H26.6667C28.5083 30 30 28.5083 30 26.6667V3.33333C30 1.49167 28.5083 0 26.6667 0H3.33333ZM3.33333 3.33333H26.6667V26.6667H3.33333V3.33333ZM7.96549 5.52734C6.53716 5.52734 5.68034 6.38596 5.68034 7.5293C5.68034 8.67263 6.53727 9.52799 7.82227 9.52799C9.2506 9.52799 10.1074 8.67263 10.1074 7.5293C10.1074 6.38596 9.25049 5.52734 7.96549 5.52734ZM5.79427 11.6667V23.3333H10V11.6667H5.79427ZM13.4701 11.6667V23.3333H17.6758V16.9564C17.6758 15.058 19.0302 14.7852 19.4368 14.7852C19.8435 14.7852 20.931 15.193 20.931 16.9564V23.3333H25V16.9564C25 13.2947 23.3729 11.6667 21.3379 11.6667C19.3029 11.6667 18.2174 12.3443 17.6758 13.2943V11.6667H13.4701Z" fill="#623AE9"/>
</svg>
