<svg width="353" height="104" viewBox="0 0 353 104" fill="none" xmlns="http://www.w3.org/2000/svg">
<path d="M2 52L2.33333 53.4997L2.66667 54.9982L3 56.4939L3.33333 57.9856L3.66667 59.4719L4 60.9514L4.33333 62.423L4.66667 63.8851L5 65.3365L5.33333 66.776L5.66667 68.2021L6 69.6137L6.33333 71.0094L6.66667 72.388L7 73.7482L7.33333 75.0889L7.66667 76.4088L8 77.7068L8.33333 78.9816L8.66667 80.2321L9 81.4572L9.33333 82.6558L9.66667 83.8268L10 84.9692L10.3333 86.0819L10.6667 87.1639L11 88.2143L11.3333 89.2321L11.6667 90.2164L12 91.1663L12.3333 92.081L12.6667 92.9595L13 93.8013L13.3333 94.6054L13.6667 95.3711L14 96.0979L14.3333 96.7849L14.6667 97.4316L15 98.0375L15.3333 98.6019L15.6667 99.1244L16 99.6045L16.3333 100.042L16.6667 100.436L17 100.786L17.3333 101.093L17.6667 101.355L18 101.573L18.3333 101.746L18.6667 101.875L19 101.958L19.3333 101.997L19.6667 101.991L20 101.939L20.3333 101.843L20.6667 101.702L21 101.516L21.3333 101.286L21.6667 101.011L22 100.692L22.3333 100.33L22.6667 99.9235L23 99.4742L23.3333 98.9822L23.6667 98.4479L24 97.8719L24.3333 97.2545L24.6667 96.5964L25 95.8982L25.3333 95.1604L25.6667 94.3839L26 93.5691L26.3333 92.717L26.6667 91.8282L27 90.9036L27.3333 89.944L27.6667 88.9502L28 87.9232L28.3333 86.8638L28.6667 85.7731L29 84.652L29.3333 83.5015L29.6667 82.3226L30 81.1165L30.3333 79.8841L30.6667 78.6267L31 77.3453L31.3333 76.0411L31.6667 74.7152L32 73.369L32.3333 72.0034L32.6667 70.6199L33 69.2196L33.3333 67.8039L33.6667 66.3739L34 64.9309L34.3333 63.4764L34.6667 62.0115L35 60.5376L35.3333 59.056L35.6667 57.568L36 56.0751L36.3333 54.5784L36.6667 53.0795L37 51.5796L37.3333 50.0801L37.6667 48.5823L38 47.0875L38.3333 45.5972L38.6667 44.1127L39 42.6352L39.3333 41.1662L39.6667 39.7069L40 38.2587L40.3333 36.8229L40.6667 35.4007L41 33.9935L41.3333 32.6024L41.6667 31.2288L42 29.8739L42.3333 28.539L42.6667 27.2251L43 25.9335L43.3333 24.6654L43.6667 23.4219L44 22.2041L44.3333 21.0131L44.6667 19.85L45 18.7159L45.3333 17.6117L45.6667 16.5384L46 15.497L46.3333 14.4885L46.6667 13.5138L47 12.5737L47.3333 11.6691L47.6667 10.8007L48 9.96949L48.3333 9.17606L48.6667 8.42117L49 7.7055L49.3333 7.02969L49.6667 6.39435L50 5.80005L50.3333 5.24733L50.6667 4.73669L51 4.26857L51.3333 3.84342L51.6667 3.46159L52 3.12346L52.3333 2.8293L52.6667 2.5794L53 2.37397L53.3333 2.2132L53.6667 2.09724L54 2.02619L54.3333 2.0001L54.6667 2.01902L55 2.08291L55.3333 2.19173L55.6667 2.34537L56 2.5437L56.3333 2.78653L56.6667 3.07366L57 3.40481L57.3333 3.77969L57.6667 4.19797L58 4.65927L58.3333 5.16318L58.6667 5.70923L59 6.29694L59.3333 6.92578L59.6667 7.59518L60 8.30455L60.3333 9.05324L60.6667 9.84057L61 10.6659L61.3333 11.5283L61.6667 12.4272L62 13.3617L62.3333 14.331L62.6667 15.3342L63 16.3704L63.3333 17.4386L63.6667 18.538L64 19.6674L64.3333 20.826L64.6667 22.0126L65 23.2262L65.3333 24.4657L65.6667 25.73L66 27.0179L66.3333 28.3283L66.6667 29.66L67 31.0118L67.3333 32.3825L67.6667 33.7708L68 35.1755L68.3333 36.5954L68.6667 38.0292L69 39.4755L69.3333 40.9331L69.6667 42.4007L70 43.8769L70.3333 45.3604L70.6667 46.8498L71 48.344L71.3333 49.8414L71.6667 51.3407L72 52.8407L72.3333 54.3398L72.6667 55.8369L73 57.3305L73.3333 58.8194L73.6667 60.3021L74 61.7773L74.3333 63.2437L74.6667 64.7L75 66.1449L75.3333 67.577L75.6667 68.9952L76 70.398L76.3333 71.7843L76.6667 73.1527L77 74.5022L77.3333 75.8314L77.6667 77.1391L78 78.4242L78.3333 79.6855L78.6667 80.922L79 82.1323L79.3333 83.3156L79.6667 84.4707L80 85.5966L80.3333 86.6922L80.6667 87.7566L81 88.7889L81.3333 89.788L81.6667 90.7531L82 91.6834L82.3333 92.5779L82.6667 93.4359L83 94.2566L83.3333 95.0393L83.6667 95.7833L84 96.4879L84.3333 97.1524L84.6667 97.7763L85 98.359L85.3333 98.9L85.6667 99.3987L86 99.8549L86.3333 100.268L86.6667 100.638L87 100.963L87.3333 101.245L87.6667 101.483L88 101.676L88.3333 101.824L88.6667 101.927L89 101.986L89.3333 101.999L89.6667 101.968L90 101.891L90.3333 101.77L90.6667 101.603L91 101.393L91.3333 101.137L91.6667 100.838L92 100.494L92.3333 100.107L92.6667 99.677L93 99.2037L93.3333 98.688L93.6667 98.1302L94 97.5309L94.3333 96.8906L94.6667 96.2099L95 95.4895L95.3333 94.7299L95.6667 93.9319L96 93.0961L96.3333 92.2233L96.6667 91.3144L97 90.37L97.3333 89.3911L97.6667 88.3786L98 87.3334L98.3333 86.2563L98.6667 85.1484L99 84.0107L99.3333 82.8442L99.6667 81.6499L100 80.4289L100.333 79.1824L100.667 77.9114L101 76.617L101.333 75.3006L101.667 73.9631L102 72.6059L102.333 71.2301L102.667 69.8371L103 68.4279L103.333 67.004L103.667 65.5666L104 64.117L104.333 62.6565L104.667 61.1864L105 59.708L105.333 58.2227L105.667 56.7318L106 55.2366L106.333 53.7385L106.667 52.2389L107 50.739L107.333 49.2403L107.667 47.744L108 46.2516L108.333 44.7644L108.667 43.2836L109 41.8107L109.333 40.347L109.667 38.8938L110 37.4523L110.333 36.024L110.667 34.61L111 33.2117L111.333 31.8303L111.667 30.467L112 29.1232L112.333 27.7999L112.667 26.4984L113 25.2198L113.333 23.9653L113.667 22.7361L114 21.5332L114.333 20.3577L114.667 19.2107L115 18.0932L115.333 17.0062L115.667 15.9507L116 14.9277L116.333 13.938L116.667 12.9826L117 12.0622L117.333 11.1779L117.667 10.3302L118 9.52008L118.333 8.74816L118.667 8.01517L119 7.32177L119.333 6.66857L119.667 6.05616L120 5.48511L120.333 4.95591L120.667 4.46905L121 4.02496L121.333 3.62405L121.667 3.26667L122 2.95315L122.333 2.68377L122.667 2.45877L123 2.27835L123.333 2.14268L123.667 2.05188L124 2.00603L124.333 2.00516L124.667 2.04929L125 2.13838L125.333 2.27233L125.667 2.45104L126 2.67434L126.333 2.94202L126.667 3.25386L127 3.60956L127.333 4.00881L127.667 4.45125L128 4.93649L128.333 5.46407L128.667 6.03354L129 6.64437L129.333 7.29601L129.667 7.98789L130 8.71938L130.333 9.48982L130.667 10.2985L131 11.1447L131.333 12.0277L131.667 12.9467L132 13.9008L132.333 14.8892L132.667 15.911L133 16.9652L133.333 18.051L133.667 19.1674L134 20.3133L134.333 21.4877L134.667 22.6896L135 23.9178L135.333 25.1713L135.667 26.449L136 27.7496L136.333 29.0721L136.667 30.4152L137 31.7778L137.333 33.1585L137.667 34.5562L138 35.9696L138.333 37.3974L138.667 38.8384L139 40.2912L139.333 41.7545L139.667 43.2271L140 44.7075L140.333 46.1946L140.667 47.6868L141 49.1829L141.333 50.6816L141.667 52.1814L142 53.6811L142.333 55.1793L142.667 56.6746L143 58.1657L143.333 59.6512L143.667 61.1299L144 62.6004L144.333 64.0613L144.667 65.5113L145 66.9492L145.333 68.3737L145.667 69.7834L146 71.1771L146.333 72.5536L146.667 73.9115L147 75.2497L147.333 76.567L147.667 77.8622L148 79.1342L148.333 80.3817L148.667 81.6036L149 82.799L149.333 83.9666L149.667 85.1054L150 86.2145L150.333 87.2927L150.667 88.3392L151 89.353L151.333 90.3332L151.667 91.2789L152 92.1892L152.333 93.0633L152.667 93.9006L153 94.7001L153.333 95.4611L153.667 96.1831L154 96.8653L154.333 97.5071L154.667 98.108L155 98.6674L155.333 99.1847L155.667 99.6597L156 100.092L156.333 100.48L156.667 100.826L157 101.127L157.333 101.384L157.667 101.596L158 101.764L158.333 101.887L158.667 101.965L159 101.999L159.333 101.987L159.667 101.93L160 101.829L160.333 101.682L160.667 101.491L161 101.255L161.333 100.975L161.667 100.651L162 100.283L162.333 99.8715L162.667 99.417L163 98.9198L163.333 98.3805L163.667 97.7994L164 97.177L164.333 96.514L164.667 95.811L165 95.0685L165.333 94.2873L165.667 93.468L166 92.6114L166.333 91.7183L166.667 90.7894L167 89.8256L167.333 88.8277L167.667 87.7967L168 86.7335L168.333 85.6391L168.667 84.5144L169 83.3604L169.333 82.1781L169.667 80.9688L170 79.7333L170.333 78.4729L170.667 77.1887L171 75.8818L171.333 74.5534L171.667 73.2048L172 71.837L172.333 70.4514L172.667 69.0492L173 67.6316L173.333 66.2L173.667 64.7556L174 63.2997L174.333 61.8336L174.667 60.3587L175 58.8763L175.333 57.3876L175.667 55.8942L176 54.3972L176.333 52.8981L176.667 51.3981L177 49.8987L177.333 48.4012L177.667 46.907L178 45.4173L178.333 43.9335L178.667 42.457L179 40.9891L179.333 39.5311L179.667 38.0843L180 36.6501L180.333 35.2296L180.667 33.8243L181 32.4353L181.333 31.0639L181.667 29.7114L182 28.3789L182.333 27.0676L182.667 25.7788L183 24.5136L183.333 23.2732L183.667 22.0586L184 20.8709L184.333 19.7113L184.667 18.5807L185 17.4801L185.333 16.4107L185.667 15.3733L186 14.3688L186.333 13.3982L186.667 12.4624L187 11.5621L187.333 10.6982L187.667 9.87148L188 9.08267L188.333 8.33249L188.667 7.62161L189 6.95066L189.333 6.32026L189.667 5.73096L190 5.18331L190.333 4.67778L190.667 4.21485L191 3.79491L191.333 3.41836L191.667 3.08552L192 2.79671L192.333 2.55218L192.667 2.35214L193 2.19679L193.333 2.08625L193.667 2.02064L194 2L194.333 2.02436L194.667 2.09369L195 2.20794L195.333 2.36699L195.667 2.57071L196 2.81892L196.333 3.11138L196.667 3.44784L197 3.828L197.333 4.2515L197.667 4.71798L198 5.227L198.333 5.77812L198.667 6.37084L199 7.00462L199.333 7.67889L199.667 8.39305L200 9.14645L200.333 9.93841L200.667 10.7682L201 11.6352L201.333 12.5384L201.667 13.4772L202 14.4506L202.333 15.4578L202.667 16.4979L203 17.57L203.333 18.673L203.667 19.8061L204 20.9681L204.333 22.158L204.667 23.3748L205 24.6173L205.333 25.8845L205.667 27.1752L206 28.4883L206.333 29.8225L206.667 31.1766L207 32.5495L207.333 33.9399L207.667 35.3465L208 36.7682L208.333 38.2035L208.667 39.6513L209 41.1101L209.333 42.5788L209.667 44.056L210 45.5403L210.333 47.0304L210.667 48.525L211 50.0227L211.333 51.5222L211.667 53.0221L212 54.5211L212.333 56.0178L212.667 57.5109L213 58.9991L213.333 60.481L213.667 61.9552L214 63.4205L214.333 64.8754L214.667 66.3188L215 67.7494L215.333 69.1657L215.667 70.5666L216 71.9508L216.333 73.317L216.667 74.6641L217 75.9907L217.333 77.2958L217.667 78.5781L218 79.8365L218.333 81.0698L218.667 82.277L219 83.4569L219.333 84.6085L219.667 85.7308L220 86.8227L220.333 87.8832L220.667 88.9115L221 89.9066L221.333 90.8675L221.667 91.7935L222 92.6836L222.333 93.5372L222.667 94.3534L223 95.1314L223.333 95.8706L223.667 96.5704L224 97.23L224.333 97.849L224.667 98.4267L225 98.9626L225.333 99.4562L225.667 99.9071L226 100.315L226.333 100.679L226.667 101L227 101.276L227.333 101.508L227.667 101.696L228 101.839L228.333 101.937L228.667 101.99L229 101.998L229.333 101.961L229.667 101.879L230 101.752L230.333 101.58L230.667 101.364L231 101.103L231.333 100.799L231.667 100.45L232 100.058L232.333 99.622L232.667 99.1436L233 98.6227L233.333 98.0599L233.667 97.4556L234 96.8104L234.333 96.1249L234.667 95.3997L235 94.6354L235.333 93.8327L235.667 92.9924L236 92.1153L236.333 91.202L236.667 90.2534L237 89.2704L237.333 88.2539L237.667 87.2047L238 86.1239L238.333 85.0124L238.667 83.8711L239 82.7011L239.333 81.5036L239.667 80.2795L240 79.0299L240.333 77.756L240.667 76.4589L241 75.1398L241.333 73.7999L241.667 72.4404L242 71.0625L242.333 69.6674L242.667 68.2564L243 66.8308L243.333 65.3919L243.667 63.9409L244 62.4791L244.333 61.0079L244.667 59.5286L245 58.0426L245.333 56.5511L245.667 55.0555L246 53.5571L246.333 52.0574L246.667 50.5576L247 49.0591L247.333 47.5632L247.667 46.0714L248 44.5848L248.333 43.105L248.667 41.6331L249 40.1706L249.333 38.7187L249.667 37.2788L250 35.8521L250.333 34.44L250.667 33.0437L251 31.6644L251.333 30.3034L251.667 28.962L252 27.6412L252.333 26.3424L252.667 25.0667L253 23.8153L253.333 22.5891L253.667 21.3895L254 20.2174L254.333 19.0739L254.667 17.9601L255 16.8768L255.333 15.8252L255.667 14.8062L256 13.8206L256.333 12.8693L256.667 11.9533L257 11.0733L257.333 10.2302L257.667 9.42464L258 8.6574L258.333 7.92917L258.667 7.24059L259 6.5923L259.333 5.98487L259.667 5.41885L260 4.89475L260.333 4.41304L260.667 3.97415L261 3.57849L261.333 3.2264L261.667 2.91821L262 2.65418L262.333 2.43457L262.667 2.25956L263 2.12931L263.333 2.04394L263.667 2.00353L264 2.00811L264.333 2.05768L264.667 2.1522L265 2.29158L265.333 2.47569L265.667 2.70436L266 2.97741L266.333 3.29456L266.667 3.65555L267 4.06005L267.333 4.50769L267.667 4.99807L268 5.53075L268.333 6.10524L268.667 6.72104L269 7.37759L269.333 8.07429L269.667 8.81053L270 9.58563L270.333 10.3989L270.667 11.2496L271 12.137L271.333 13.0603L271.667 14.0186L272 15.011L272.333 16.0368L272.667 17.0949L273 18.1845L273.333 19.3045L273.667 20.4539L274 21.6316L274.333 22.8368L274.667 24.0681L275 25.3246L275.333 26.6051L275.667 27.9085L276 29.2335L276.333 30.5791L276.667 31.9439L277 33.3267L277.333 34.7264L277.667 36.1416L278 37.5711L278.333 39.0135L278.667 40.4677L279 41.9322L279.333 43.4058L279.667 44.8871L280 46.3748L280.333 47.8676L280.667 49.3641L281 50.863L281.333 52.3629L281.667 53.8625L282 55.3604L282.333 56.8552L282.667 58.3457L283 59.8305L283.333 61.3083L283.667 62.7776L284 64.2373L284.333 65.686L284.667 67.1223L285 68.545L285.333 69.9529L285.667 71.3446L286 72.7188L286.333 74.0745L286.667 75.4102L287 76.7249L287.333 78.0174L287.667 79.2864L288 80.5309L288.333 81.7497L288.667 82.9417L289 84.1059L289.333 85.2412L289.667 86.3466L290 87.421L290.333 88.4636L290.667 89.4734L291 90.4494L291.333 91.3909L291.667 92.2969L292 93.1666L292.333 93.9993L292.667 94.7942L293 95.5506L293.333 96.2678L293.667 96.9451L294 97.582L294.333 98.1779L294.667 98.7322L295 99.2445L295.333 99.7142L295.667 100.141L296 100.525L296.333 100.864L296.667 101.16L297 101.412L297.333 101.619L297.667 101.781L298 101.899L298.333 101.972L298.667 102L299 101.982L299.333 101.92L299.667 101.813L300 101.661L300.333 101.465L300.667 101.224L301 100.938L301.333 100.609L301.667 100.235L302 99.8188L302.333 99.3591L302.667 98.8568L303 98.3124L303.333 97.7262L303.667 97.099L304 96.4311L304.333 95.7233L304.667 94.9761L305 94.1902L305.333 93.3664L305.667 92.5053L306 91.6078L306.333 90.6746L306.667 89.7066L307 88.7047L307.333 87.6698L307.667 86.6028L308 85.5046L308.333 84.3763L308.667 83.2188L309 82.0333L309.333 80.8207L309.667 79.5822L310 78.3188L310.333 77.0318L310.667 75.7222L311 74.3913L311.333 73.0403L311.667 71.6703L312 70.2826L312.333 68.8784L312.667 67.4591L313 66.0259L313.333 64.58L313.667 63.1228L314 61.6556L314.333 60.1797L314.667 58.6965L315 57.2072L315.333 55.7132L315.667 54.2159L316 52.7166L316.333 51.2167L316.667 49.7174L317 48.2203L317.333 46.7265L317.667 45.2374L318 43.7545L318.333 42.279L318.667 40.8122L319 39.3555L319.333 37.9101L319.667 36.4775L320 35.0588L320.333 33.6553L320.667 32.2684L321 30.8992L321.333 29.5491L321.667 28.2191L322 26.9105L322.333 25.6245L322.667 24.3622L323 23.1248L323.333 21.9134L323.667 20.7291L324 19.5729L324.333 18.4459L324.667 17.3491L325 16.2835L325.333 15.25L325.667 14.2496L326 13.2831L326.333 12.3515L326.667 11.4556L327 10.5962L327.333 9.77402L327.667 8.98985L328 8.24439L328.333 7.5383L328.667 6.87223L329 6.24677L329.333 5.66249L329.667 5.1199L330 4.6195L330.333 4.16175L330.667 3.74704L331 3.37576L331.333 3.04824L331.667 2.76477L332 2.52561L332.333 2.33097L332.667 2.18103L333 2.07593L333.333 2.01575L333.667 2.00055L334 2.03036L334.333 2.10513L334.667 2.2248L335 2.38927L335.333 2.59838L335.667 2.85195L336 3.14975L336.333 3.49152L336.667 3.87693L337 4.30566L337.333 4.77731L337.667 5.29145L338 5.84763L338.333 6.44534L338.667 7.08405L339 7.76318L339.333 8.48212L339.667 9.24022L340 10.0368L340.333 10.8712L340.667 11.7425L341 12.6501L341.333 13.5931L341.667 14.5707L342 15.5819L342.333 16.6259L342.667 17.7018L343 18.8085L343.333 19.9451L343.667 21.1106L344 22.3038L344.333 23.5238L344.667 24.7694L345 26.0395L345.333 27.3329L345.667 28.6486L346 29.9852L346.333 31.3417L346.667 32.7168L347 34.1092L347.333 35.5178L347.667 36.9411L348 38.378L348.333 39.8272L348.667 41.2873L349 42.7571L349.333 44.2352L349.667 45.7203L350 47.211L350.333 48.706L350.667 50.204L351 51.7036L2 52Z" stroke="#3D2397" stroke-width="3"/>
</svg>
