<svg width="16" height="16" viewBox="0 0 16 16" fill="none" xmlns="http://www.w3.org/2000/svg">
    <path d="M7.9999 16C7.71657 16 7.47924 15.904 7.2879 15.712C7.0959 15.5207 6.9999 15.2833 6.9999 15V3.82499L2.1249 8.69999C1.9249 8.89999 1.68724 8.99999 1.4119 8.99999C1.13724 8.99999 0.899902 8.89999 0.699902 8.69999C0.499902 8.49999 0.399902 8.26665 0.399902 7.99999C0.399902 7.73332 0.499902 7.49999 0.699902 7.29999L7.2999 0.699987C7.3999 0.599987 7.50824 0.528988 7.6249 0.486988C7.74157 0.445654 7.86657 0.424988 7.9999 0.424988C8.13324 0.424988 8.26257 0.445654 8.3879 0.486988C8.51257 0.528988 8.61657 0.599987 8.6999 0.699987L15.2999 7.29999C15.4999 7.49999 15.5999 7.73332 15.5999 7.99999C15.5999 8.26665 15.4999 8.49999 15.2999 8.69999C15.0999 8.89999 14.8622 8.99999 14.5869 8.99999C14.3122 8.99999 14.0749 8.89999 13.8749 8.69999L8.9999 3.82499V15C8.9999 15.2833 8.90424 15.5207 8.7129 15.712C8.5209 15.904 8.28324 16 7.9999 16Z" fill="white"/>
    </svg>
    