<svg width="50" height="43" viewBox="0 0 50 43" fill="#bd3fbf" xmlns="http://www.w3.org/2000/svg">
<path d="M17.5 0V2.48162H5C2.26734 2.48162 0 4.73229 0 7.44485V17.3713V27.2978V37.2243C0 39.9368 2.26734 42.1875 5 42.1875H45C47.7327 42.1875 50 39.9368 50 37.2243V27.2978V17.3713V7.44485C50 4.73229 47.7327 2.48162 45 2.48162H32.5V0H17.5ZM5 7.44485H45V17.3713V27.2978H5V17.3713V7.44485ZM25 17.3713C24.337 17.3713 23.7011 17.6328 23.2322 18.0982C22.7634 18.5636 22.5 19.1948 22.5 19.8529C22.5 20.5111 22.7634 21.1423 23.2322 21.6077C23.7011 22.0731 24.337 22.3346 25 22.3346C25.663 22.3346 26.2989 22.0731 26.7678 21.6077C27.2366 21.1423 27.5 20.5111 27.5 19.8529C27.5 19.1948 27.2366 18.5636 26.7678 18.0982C26.2989 17.6328 25.663 17.3713 25 17.3713ZM5 32.261H45V37.2243H5V32.261Z"/>
</svg>
