<svg width="144" height="137" viewBox="0 0 144 137" fill="none" xmlns="http://www.w3.org/2000/svg">
<path fill-rule="evenodd" clip-rule="evenodd" d="M142 68.5001L141.991 68.8478L141.965 69.1953L141.921 69.5424L141.859 69.8887L141.78 70.234L141.684 70.5781L141.572 70.9207L141.442 71.2617L141.296 71.6009L141.134 71.9379L140.957 72.2726L140.765 72.6049L140.557 72.9345L140.336 73.2612L140.101 73.585L139.852 73.9056L139.591 74.223L139.319 74.5369L139.034 74.8473L138.74 75.1542L138.435 75.4574L138.121 75.7569L137.798 76.0526L137.468 76.3445L137.131 76.6326L136.787 76.9169L136.438 77.1974L136.085 77.4742L135.727 77.7472L135.367 78.0167L135.004 78.2827L134.64 78.5452L134.275 78.8045L133.911 79.0606L133.547 79.3137L133.186 79.5639L132.827 79.8115L132.471 80.0566L132.119 80.2994L131.772 80.5402L131.431 80.7792L131.096 81.0167L130.768 81.2528L130.448 81.4878L130.136 81.7221L129.832 81.9558L129.538 82.1894L129.254 82.4229L128.981 82.6569L128.718 82.8914L128.467 83.1269L128.228 83.3637L128.001 83.602L127.786 83.8421L127.584 84.0843L127.396 84.329L127.22 84.5764L127.058 84.8267L126.91 85.0803L126.776 85.3374L126.655 85.5983L126.548 85.8632L126.455 86.1324L126.376 86.4061L126.31 86.6844L126.258 86.9677L126.219 87.256L126.193 87.5495L126.181 87.8484L126.18 88.1529L126.192 88.4629L126.216 88.7787L126.252 89.1003L126.298 89.4277L126.355 89.761L126.422 90.1002L126.499 90.4453L126.585 90.7963L126.68 91.153L126.782 91.5156L126.891 91.8837L127.007 92.2574L127.13 92.6365L127.257 93.0209L127.389 93.4103L127.525 93.8046L127.664 94.2035L127.806 94.6068L127.949 95.0143L128.093 95.4256L128.238 95.8404L128.382 96.2585L128.525 96.6795L128.666 97.1031L128.804 97.5289L128.939 97.9564L129.07 98.3854L129.196 98.8154L129.316 99.246L129.43 99.6768L129.538 100.107L129.638 100.537L129.729 100.966L129.812 101.393L129.886 101.818L129.95 102.24L130.003 102.659L130.046 103.075L130.077 103.487L130.096 103.895L130.103 104.298L130.098 104.695L130.079 105.087L130.048 105.472L130.002 105.851L129.943 106.223L129.87 106.588L129.782 106.945L129.681 107.294L129.564 107.634L129.433 107.965L129.288 108.288L129.128 108.6L128.954 108.904L128.765 109.197L128.561 109.48L128.344 109.753L128.112 110.015L127.866 110.266L127.607 110.507L127.335 110.736L127.049 110.955L126.751 111.163L126.44 111.359L126.118 111.545L125.784 111.719L125.439 111.883L125.083 112.035L124.717 112.177L124.341 112.309L123.956 112.43L123.563 112.541L123.162 112.642L122.753 112.733L122.337 112.815L121.915 112.888L121.487 112.953L121.054 113.009L120.617 113.057L120.176 113.098L119.732 113.132L119.285 113.159L118.836 113.18L118.386 113.196L117.935 113.206L117.484 113.212L117.034 113.214L116.584 113.213L116.136 113.209L115.691 113.202L115.248 113.194L114.809 113.185L114.373 113.176L113.942 113.166L113.515 113.158L113.094 113.151L112.679 113.145L112.269 113.143L111.866 113.143L111.471 113.148L111.082 113.156L110.701 113.17L110.328 113.189L109.962 113.214L109.606 113.246L109.257 113.285L108.918 113.332L108.587 113.386L108.265 113.449L107.953 113.521L107.649 113.602L107.355 113.693L107.07 113.794L106.794 113.906L106.527 114.028L106.269 114.161L106.02 114.306L105.78 114.461L105.548 114.629L105.325 114.808L105.11 114.999L104.903 115.201L104.704 115.416L104.512 115.642L104.327 115.881L104.149 116.131L103.977 116.392L103.812 116.666L103.652 116.95L103.498 117.246L103.349 117.553L103.204 117.87L103.063 118.197L102.926 118.535L102.793 118.882L102.662 119.238L102.533 119.602L102.407 119.975L102.282 120.356L102.158 120.744L102.035 121.138L101.911 121.538L101.788 121.944L101.663 122.355L101.538 122.769L101.411 123.187L101.282 123.608L101.15 124.031L101.016 124.456L100.878 124.881L100.737 125.306L100.592 125.73L100.442 126.153L100.288 126.574L100.129 126.991L99.9649 127.405L99.7953 127.815L99.6199 128.219L99.4385 128.617L99.251 129.009L99.0571 129.393L98.8567 129.769L98.6496 130.137L98.4357 130.495L98.2149 130.843L97.987 131.18L97.7522 131.506L97.5102 131.821L97.2612 132.123L97.005 132.412L96.7417 132.687L96.4714 132.949L96.1942 133.196L95.9101 133.429L95.6192 133.646L95.3216 133.849L95.0176 134.035L94.7072 134.205L94.3907 134.36L94.0682 134.497L93.7399 134.619L93.4061 134.723L93.067 134.811L92.7228 134.882L92.3739 134.937L92.0205 134.974L91.6628 134.995L91.3012 135L90.936 134.988L90.5674 134.96L90.1957 134.917L89.8214 134.858L89.4446 134.783L89.0657 134.694L88.6851 134.59L88.3029 134.472L87.9196 134.341L87.5355 134.197L87.1508 134.04L86.7659 133.871L86.381 133.691L85.9965 133.5L85.6126 133.299L85.2296 133.089L84.8477 132.869L84.4673 132.642L84.0884 132.408L83.7115 132.166L83.3366 131.92L82.964 131.668L82.5938 131.411L82.2263 131.152L81.8616 130.89L81.4998 130.625L81.141 130.36L80.7854 130.095L80.4331 129.83L80.084 129.567L79.7384 129.305L79.3962 129.047L79.0574 128.792L78.7221 128.542L78.3902 128.297L78.0618 128.058L77.7367 127.825L77.4149 127.6L77.0964 127.383L76.7811 127.174L76.4688 126.975L76.1595 126.785L75.853 126.606L75.5491 126.438L75.2478 126.281L74.9488 126.136L74.652 126.003L74.3572 125.883L74.0641 125.776L73.7727 125.682L73.4827 125.602L73.1938 125.536L72.9059 125.484L72.6187 125.446L72.332 125.422L72.0456 125.412L71.7592 125.417L71.4726 125.436L71.1856 125.47L70.898 125.518L70.6094 125.58L70.3198 125.655L70.0288 125.745L69.7363 125.848L69.4421 125.964L69.146 126.092L68.8477 126.234L68.5471 126.387L68.2441 126.551L67.9384 126.727L67.63 126.913L67.3187 127.11L67.0043 127.315L66.6868 127.53L66.3661 127.753L66.0421 127.983L65.7148 128.22L65.384 128.463L65.0498 128.712L64.7121 128.965L64.371 129.223L64.0264 129.483L63.6785 129.746L63.3272 130.01L62.9726 130.276L62.6148 130.541L62.254 130.806L61.8902 131.069L61.5235 131.329L61.1542 131.586L60.7823 131.84L60.4082 132.088L60.0318 132.331L59.6536 132.568L59.2736 132.798L58.8922 133.02L58.5095 133.233L58.1258 133.437L57.7415 133.631L57.3567 133.815L56.9718 133.987L56.587 134.148L56.2026 134.297L55.819 134.432L55.4365 134.554L55.0554 134.662L54.6759 134.756L54.2984 134.835L53.9232 134.9L53.5507 134.948L53.1811 134.981L52.8147 134.998L52.4519 134.999L52.093 134.983L51.7382 134.95L51.3878 134.901L51.0421 134.836L50.7014 134.753L50.3658 134.654L50.0358 134.538L49.7114 134.405L49.393 134.256L49.0806 134.091L48.7745 133.91L48.4749 133.712L48.1819 133.5L47.8956 133.272L47.6161 133.029L47.3436 132.772L47.0781 132.501L46.8197 132.216L46.5683 131.918L46.3241 131.608L46.087 131.285L45.8569 130.952L45.6339 130.607L45.4178 130.252L45.2085 129.887L45.006 129.514L44.8101 129.132L44.6205 128.743L44.4372 128.346L44.26 127.944L44.0885 127.536L43.9226 127.124L43.762 126.707L43.6064 126.288L43.4555 125.865L43.309 125.441L43.1666 125.016L43.0278 124.591L42.8924 124.166L42.76 123.743L42.6301 123.321L42.5024 122.902L42.3764 122.486L42.2518 122.074L42.128 121.667L42.0047 121.265L41.8814 120.869L41.7577 120.479L41.6331 120.096L41.5071 119.72L41.3794 119.353L41.2494 118.994L41.1167 118.644L40.9808 118.304L40.8414 117.973L40.698 117.653L40.5502 117.343L40.3975 117.043L40.2396 116.755L40.076 116.478L39.9065 116.213L39.7306 115.959L39.548 115.717L39.3583 115.487L39.1614 115.268L38.9568 115.062L38.7443 114.867L38.5237 114.684L38.2948 114.513L38.0573 114.354L37.8111 114.206L37.5561 114.069L37.292 113.944L37.0189 113.829L36.7367 113.724L36.4454 113.63L36.1448 113.546L35.8351 113.471L35.5163 113.405L35.1885 113.348L34.8518 113.299L34.5063 113.258L34.1522 113.224L33.7897 113.197L33.419 113.176L33.0403 113.16L32.654 113.15L32.2604 113.144L31.8598 113.143L31.4525 113.144L31.0389 113.149L30.6195 113.155L30.1947 113.164L29.7649 113.173L29.3306 113.182L28.8923 113.192L28.4506 113.2L28.0058 113.207L27.5587 113.212L27.1097 113.214L26.6595 113.213L26.2086 113.209L25.7576 113.2L25.3072 113.186L24.8579 113.166L24.4103 113.141L23.9652 113.109L23.523 113.071L23.0845 113.025L22.6502 112.972L22.2208 112.91L21.7969 112.84L21.379 112.76L20.9679 112.672L20.564 112.574L20.168 112.466L19.7804 112.348L19.4018 112.22L19.0327 112.082L18.6735 111.932L18.3249 111.772L17.9872 111.601L17.661 111.419L17.3466 111.226L17.0444 111.022L16.7547 110.807L16.4781 110.581L16.2147 110.344L15.9648 110.096L15.7287 109.837L15.5066 109.568L15.2986 109.288L15.105 108.998L14.9259 108.698L14.7613 108.388L14.6112 108.069L14.4758 107.74L14.3549 107.403L14.2485 107.057L14.1565 106.703L14.0788 106.34L14.0151 105.971L13.9654 105.594L13.9293 105.21L13.9067 104.82L13.897 104.425L13.9002 104.024L13.9157 103.618L13.9431 103.207L13.9821 102.792L14.0321 102.374L14.0926 101.952L14.1632 101.528L14.2433 101.102L14.3323 100.674L14.4297 100.244L14.5347 99.814L14.6468 99.3832L14.7653 98.9525L14.8895 98.5223L15.0188 98.093L15.1525 97.6649L15.2897 97.2385L15.4299 96.8142L15.5723 96.3923L15.7161 95.9733L15.8606 95.5573L16.0051 95.1449L16.1489 94.7362L16.2911 94.3315L16.4311 93.9312L16.5681 93.5354L16.7014 93.1444L16.8304 92.7584L16.9543 92.3776L17.0724 92.0022L17.1841 91.6322L17.2887 91.2679L17.3857 90.9093L17.4743 90.5564L17.5541 90.2095L17.6244 89.8684L17.6848 89.5332L17.7347 89.2039L17.7737 88.8805L17.8013 88.5629L17.8172 88.251L17.8209 87.9448L17.8121 87.6441L17.7906 87.3489L17.756 87.0589L17.7081 86.7741L17.6468 86.4942L17.5718 86.2191L17.4831 85.9485L17.3807 85.6823L17.2644 85.4201L17.1342 85.1618L16.9904 84.9071L16.8328 84.6558L16.6617 84.4075L16.4772 84.162L16.2795 83.919L16.069 83.6783L15.8458 83.4394L15.6103 83.2022L15.3629 82.9663L15.1039 82.7315L14.8339 82.4974L14.5532 82.2637L14.2624 82.0302L13.962 81.7966L13.6525 81.5625L13.3347 81.3277L13.009 81.092L12.6762 80.855L12.3369 80.6166L11.9918 80.3764L11.6416 80.1342L11.287 79.8898L10.9289 79.643L10.568 79.3937L10.205 79.1415L9.84073 78.8864L9.47601 78.6282L9.11164 78.3667L8.74842 78.1018L8.38716 77.8335L8.02868 77.5615L7.67379 77.2859L7.32328 77.0066L6.97797 76.7235L6.63863 76.4366L6.30605 76.146L5.98099 75.8515L5.66422 75.5532L5.35645 75.2512L5.05841 74.9455L4.7708 74.6362L4.49428 74.3233L4.22951 74.0071L3.9771 73.6875L3.73766 73.3647L3.51175 73.0389L3.29989 72.7102L3.1026 72.3788L2.92034 72.0448L2.75354 71.7085L2.6026 71.37L2.46788 71.0296L2.3497 70.6874L2.24834 70.3437L2.16404 69.9988L2.09701 69.6528L2.0474 69.306L2.01533 68.9586L2.00088 68.6109L2.00408 68.2631L2.02493 67.9155L2.06338 67.5683L2.11933 67.2217L2.19265 66.8761L2.28317 66.5316L2.39066 66.1884L2.51488 65.8469L2.65553 65.5071L2.81226 65.1694L2.98472 64.8339L3.17249 64.5008L3.37512 64.1704L3.59214 63.8427L3.82303 63.518L4.06724 63.1963L4.32421 62.8779L4.59332 62.5629L4.87394 62.2513L5.16541 61.9433L5.46706 61.639L5.77818 61.3383L6.09805 61.0414L6.42592 60.7483L6.76105 60.459L7.10265 60.1735L7.44994 59.8918L7.80213 59.6138L8.15842 59.3395L8.518 59.0689L8.88006 58.8018L9.24379 58.5382L9.60838 58.2779L9.97302 58.0208L10.3369 57.7668L10.6993 57.5157L11.0593 57.2673L11.4162 57.0214L11.7692 56.7779L12.1176 56.5364L12.4607 56.2969L12.7978 56.059L13.1281 55.8225L13.451 55.5871L13.7658 55.3526L14.0721 55.1187L14.369 54.8852L14.6562 54.6517L14.9331 54.4179L15.1992 54.1835L15.454 53.9484L15.6972 53.712L15.9282 53.4743L16.1469 53.2348L16.3528 52.9932L16.5457 52.7494L16.7253 52.5029L16.8916 52.2535L17.0442 52.001L17.1831 51.745L17.3082 51.4854L17.4195 51.2218L17.5169 50.954L17.6006 50.6818L17.6706 50.4049L17.727 50.1233L17.7701 49.8366L17.7999 49.5447L17.8168 49.2476L17.821 48.9449L17.8128 48.6366L17.7926 48.3227L17.7608 48.003L17.7178 47.6774L17.664 47.346L17.6 47.0087L17.5262 46.6654L17.4431 46.3163L17.3514 45.9614L17.2516 45.6007L17.1443 45.2343L17.0302 44.8624L16.9099 44.485L16.7841 44.1023L16.6535 43.7144L16.5187 43.3217L16.3806 42.9242L16.2397 42.5223L16.0968 42.1161L15.9527 41.706L15.8081 41.2923L15.6638 40.8752L15.5204 40.455L15.3788 40.0322L15.2395 39.6071L15.1035 39.1801L14.9714 38.7515L14.8438 38.3218L14.7216 37.8913L14.6053 37.4606L14.4957 37.03L14.3934 36.5999L14.299 36.1709L14.2132 35.7433L14.1365 35.3177L14.0695 34.8945L14.0127 34.4741L13.9666 34.057L13.9318 33.6437L13.9086 33.2347L13.8976 32.8303L13.899 32.4311L13.9134 32.0375L13.9409 31.6499L13.9819 31.2688L14.0366 30.8945L14.1053 30.5275L14.1882 30.1681L14.2854 29.8167L14.3971 29.4737L14.5232 29.1395L14.664 28.8142L14.8193 28.4983L14.9892 28.192L15.1736 27.8956L15.3725 27.6093L15.5855 27.3333L15.8128 27.0678L16.0539 26.813L16.3087 26.5689L16.577 26.3358L16.8584 26.1136L17.1526 25.9025L17.4593 25.7025L17.778 25.5135L18.1085 25.3355L18.4502 25.1685L18.8027 25.0124L19.1655 24.867L19.5382 24.7322L19.9201 24.6078L20.3108 24.4937L20.7097 24.3895L21.1163 24.295L21.5299 24.21L21.95 24.1341L22.376 24.067L22.8073 24.0082L23.2432 23.9575L23.6831 23.9144L24.1264 23.8784L24.5725 23.8492L25.0208 23.8261L25.4706 23.8088L25.9213 23.7968L26.3723 23.7894L26.823 23.7861L27.2729 23.7864L27.7212 23.7897L28.1675 23.7955L28.6113 23.8031L29.0518 23.8119L29.4887 23.8213L29.9214 23.8308L30.3495 23.8397L30.7724 23.8475L31.1897 23.8534L31.6011 23.8569L32.006 23.8574L32.4041 23.8543L32.7951 23.8471L33.1786 23.835L33.5544 23.8177L33.9222 23.7945L34.2817 23.7649L34.6327 23.7283L34.975 23.6843L35.3085 23.6324L35.6331 23.5722L35.9486 23.5031L36.2549 23.4248L36.5522 23.3369L36.8402 23.2391L37.1191 23.1309L37.3889 23.0122L37.6497 22.8825L37.9015 22.7418L38.1445 22.5897L38.3788 22.426L38.6047 22.2508L38.8224 22.0637L39.0319 21.8648L39.2337 21.654L39.428 21.4313L39.6151 21.1968L39.7952 20.9504L39.9687 20.6923L40.1361 20.4227L40.2975 20.1416L40.4535 19.8494L40.6044 19.5462L40.7505 19.2323L40.8925 18.9081L41.0305 18.5738L41.1652 18.2299L41.2968 17.8767L41.426 17.5148L41.553 17.1444L41.6784 16.7663L41.8027 16.3808L41.9262 15.9885L42.0495 15.59L42.1729 15.186L42.2969 14.7769L42.422 14.3635L42.5485 13.9464L42.677 13.5262L42.8078 13.1038L42.9412 12.6797L43.0778 12.2546L43.2178 11.8294L43.3617 11.4048L43.5098 10.9814L43.6623 10.56L43.8197 10.1413L43.9822 9.72622L44.1501 9.31532L44.3236 8.90939L44.5031 8.50917L44.6886 8.11537L44.8804 7.72869L45.0788 7.34985L45.2837 6.97952L45.4954 6.61837L45.714 6.26705L45.9396 5.9262L46.1722 5.59642L46.4119 5.27829L46.6587 4.97238L46.9126 4.67922L47.1736 4.39933L47.4417 4.13316L47.7167 3.88119L47.9987 3.6438L48.2874 3.4214L48.5829 3.21432L48.8849 3.02288L49.1932 2.84734L49.5078 2.68795L49.8285 2.54491L50.1549 2.41838L50.487 2.30847L50.8244 2.21528L51.167 2.13883L51.5144 2.07914L51.8664 2.03616L52.2228 2.00982L52.5832 2L52.9473 2.00653L53.3149 2.02923L53.6856 2.06784L54.0591 2.12209L54.4351 2.19168L54.8134 2.27624L55.1935 2.3754L55.5752 2.48871L55.9582 2.61574L56.3421 2.75598L56.7266 2.90892L57.1115 3.07399L57.4964 3.25062L57.881 3.4382L58.2652 3.63609L58.6485 3.84363L59.0308 4.06013L59.4117 4.28489L59.7911 4.51719L60.1686 4.75629L60.5442 5.00142L60.9176 5.25183L61.2885 5.50673L61.6569 5.76533L62.0225 6.02684L62.3853 6.29046L62.745 6.55537L63.1016 6.82079L63.455 7.0859L63.8051 7.3499L64.1519 7.61201L64.4952 7.87144L64.835 8.12742L65.1715 8.37918L65.5044 8.62597L65.834 8.86707L66.1601 9.10175L66.4829 9.32934L66.8024 9.54915L67.1188 9.76054L67.432 9.96288L67.7423 10.1556L68.0497 10.3381L68.3544 10.5099L68.6565 10.6704L68.9562 10.8192L69.2537 10.9559L69.5491 11.0801L69.8427 11.1913L70.1346 11.2893L70.4251 11.3738L70.7143 11.4446L71.0025 11.5014L71.2899 11.544L71.5767 11.5724L71.8632 11.5865L72.1495 11.5862L72.436 11.5715L72.7229 11.5424L73.0103 11.4991L73.2985 11.4417L73.5878 11.3704L73.8783 11.2853L74.1703 11.1867L74.4639 11.0748L74.7595 10.9501L75.057 10.8129L75.3569 10.6635L75.6591 10.5025L75.9639 10.3302L76.2714 10.1472L76.5818 9.9541L76.8952 9.75134L77.2117 9.53956L77.5313 9.31939L77.8543 9.09148L78.1806 8.85649L78.5103 8.61512L78.8434 8.3681L79.18 8.11613L79.52 7.85999L79.8635 7.60042L80.2103 7.33821L80.5606 7.07414L80.9141 6.809L81.2709 6.54359L81.6307 6.27872L81.9936 6.01518L82.3594 5.75378L82.7279 5.49533L83.0989 5.24061L83.4724 4.99042L83.8481 4.74554L84.2257 4.50673L84.6052 4.27474L84.9862 4.05033L85.3685 3.83422L85.7519 3.62709L86.136 3.42965L86.5207 3.24254L86.9056 3.06641L87.2905 2.90186L87.675 2.74948L88.0589 2.60981L88.4418 2.48339L88.8234 2.37069L89.2034 2.27218L89.5816 2.18827L89.9575 2.11936L90.3309 2.06579L90.7015 2.02788L91.0689 2.0059L91.4329 2.00009L91.7931 2.01064L92.1493 2.03772L92.5011 2.08144L92.8483 2.14187L93.1907 2.21906L93.5279 2.313L93.8597 2.42364L94.1859 2.55091L94.5062 2.69469L94.8206 2.85479L95.1287 3.03104L95.4304 3.22319L95.7255 3.43095L96.014 3.65403L96.2956 3.89207L96.5704 4.14469L96.8381 4.41147L97.0988 4.69196L97.3524 4.9857L97.5989 5.29216L97.8382 5.61082L98.0705 5.94111L98.2958 6.28244L98.5141 6.63421L98.7255 6.99578L98.9302 7.3665L99.1282 7.7457L99.3198 8.13271L99.505 8.52681L99.6842 8.92731L99.8575 9.33347L100.025 9.74457L100.187 10.1599L100.345 10.5786L100.497 11.0001L100.645 11.4236L100.788 11.8483L100.928 12.2735L101.065 12.6985L101.198 13.1226L101.329 13.5449L101.457 13.9649L101.584 14.3819L101.709 14.7952L101.833 15.204L101.956 15.6079L102.079 16.0061L102.203 16.398L102.327 16.7832L102.453 17.1611L102.58 17.531L102.709 17.8926L102.841 18.2454L102.976 18.5889L103.114 18.9227L103.256 19.2465L103.402 19.5599L103.553 19.8626L103.71 20.1544L103.871 20.4349L104.039 20.704L104.213 20.9616L104.393 21.2074L104.58 21.4415L104.775 21.6636L104.977 21.8739L105.187 22.0723L105.405 22.2588L105.631 22.4336L105.866 22.5967L106.11 22.7483L106.362 22.8885L106.623 23.0177L106.893 23.136L107.172 23.2437L107.461 23.3411L107.758 23.4285L108.065 23.5064L108.381 23.575L108.706 23.6349L109.04 23.6864L109.383 23.7301L109.734 23.7663L110.094 23.7956L110.462 23.8186L110.838 23.8357L111.222 23.8475L111.613 23.8545L112.012 23.8575L112.417 23.8568L112.829 23.8532L113.246 23.8471L113.669 23.8394L114.098 23.8304L114.531 23.8209L114.968 23.8115L115.408 23.8027L115.852 23.7952L116.299 23.7895L116.747 23.7863L117.197 23.7862L117.648 23.7896L118.099 23.7972L118.549 23.8095L118.999 23.827L119.447 23.8503L119.893 23.8799L120.337 23.9161L120.776 23.9596L121.212 24.0107L121.643 24.0698L122.069 24.1373L122.489 24.2136L122.902 24.299L123.308 24.3939L123.707 24.4985L124.097 24.6131L124.479 24.7379L124.851 24.8732L125.213 25.0191L125.565 25.1757L125.906 25.3432L126.236 25.5216L126.555 25.7111L126.861 25.9117L127.154 26.1233L127.435 26.3459L127.703 26.5795L127.957 26.8241L128.198 27.0794L128.424 27.3453L128.637 27.6218L128.835 27.9086L129.019 28.2054L129.188 28.5121L129.343 28.8285L129.483 29.1541L129.608 29.4888L129.719 29.8321L129.816 30.1839L129.898 30.5436L129.966 30.911L130.02 31.2856L130.061 31.667L130.088 32.0549L130.101 32.4488L130.102 32.8482L130.091 33.2528L130.067 33.662L130.032 34.0755L129.985 34.4927L129.928 34.9132L129.86 35.3365L129.783 35.7623L129.697 36.1899L129.602 36.619L129.5 37.0491L129.39 37.4797L129.273 37.9105L129.151 38.3409L129.023 38.7706L128.891 39.1991L128.754 39.6261L128.615 40.0511L128.473 40.4738L128.33 40.8937L128.185 41.3107L128.041 41.7243L127.897 42.1343L127.754 42.5402L127.613 42.942L127.475 43.3392L127.341 43.7318L127.21 44.1194L127.085 44.5018L126.965 44.879L126.851 45.2507L126.744 45.6168L126.644 45.9773L126.553 46.332L126.47 46.6808L126.397 47.0238L126.333 47.3608L126.28 47.692L126.238 48.0173L126.206 48.3368L126.187 48.6504L126.179 48.9584L126.184 49.2609L126.201 49.5578L126.232 49.8494L126.275 50.1359L126.332 50.4173L126.403 50.6939L126.487 50.966L126.585 51.2336L126.697 51.497L126.823 51.7565L126.962 52.0123L127.116 52.2647L127.282 52.5139L127.463 52.7603L127.656 53.004L127.863 53.2455L128.082 53.4849L128.313 53.7226L128.557 53.9588L128.812 54.194L129.079 54.4283L129.356 54.662L129.644 54.8956L129.941 55.1291L130.248 55.363L130.563 55.5976L130.886 55.833L131.217 56.0695L131.554 56.3075L131.898 56.5471L132.246 56.7886L132.6 57.0323L132.957 57.2783L133.317 57.5268L133.679 57.778L134.043 58.0322L134.408 58.2894L134.772 58.5498L135.136 58.8136L135.498 59.0808L135.857 59.3516L136.214 59.6261L136.566 59.9042L136.913 60.1861L137.254 60.4717L137.589 60.7612L137.916 61.0545L138.236 61.3516L138.547 61.6524L138.848 61.9569L139.139 62.2651L139.419 62.5768L139.687 62.892L139.944 63.2106L140.187 63.5323L140.418 63.8572L140.634 64.185L140.836 64.5156L141.023 64.8487L141.195 65.1843L141.351 65.5222L141.491 65.862L141.614 66.2036L141.721 66.5468L141.811 66.8914L141.884 67.2371L141.939 67.5837L141.976 67.9309L141.996 68.2785L141.999 68.6263L141.984 68.974L141.951 69.3214L141.9 69.6681L141.833 70.0141L141.748 70.359L141.645 70.7026L141.526 71.0447L141.391 71.3851L141.239 71.7234L141.072 72.0597L140.889 72.3935L140.691 72.7248L140.479 73.0534L140.252 73.3791L140.012 73.7017L139.759 74.0212L139.494 74.3373L139.217 74.65L138.929 74.9591L138.63 75.2647L138.322 75.5665L138.005 75.8646L137.679 76.1589L137.346 76.4495L137.007 76.7362L136.661 77.0191L136.311 77.2983L135.955 77.5737L135.597 77.8455L135.235 78.1137L134.872 78.3784L134.508 78.6397L134.143 78.8978L133.779 79.1528L133.416 79.4048L133.055 79.6541L132.697 79.9007L132.343 80.145L131.993 80.3871L131.648 80.6272L131.309 80.8656L130.976 81.1025L130.651 81.3382L130.334 81.5729L130.024 81.807L129.725 82.0406L129.434 82.2741L129.154 82.5078L128.884 82.7419L128.626 82.9768L128.379 83.2127L128.144 83.45L127.921 83.6889L127.711 83.9298L127.514 84.1728L127.33 84.4184L127.16 84.6669L127.003 84.9184L126.86 85.1732L126.73 85.4317L126.614 85.694L126.513 85.9604L126.425 86.2312L126.35 86.5066L126.289 86.7867L126.242 87.0717L126.208 87.3619L126.187 87.6574L126.179 87.9583L126.183 88.2647L126.2 88.5769L126.228 88.8947L126.267 89.2184L126.318 89.548L126.379 89.8834L126.449 90.2248L126.529 90.572L126.618 90.9251L126.716 91.284L126.821 91.6485L126.933 92.0187L127.051 92.3944L127.175 92.7754L127.304 93.1617L127.438 93.5529L127.575 93.9488L127.715 94.3494L127.857 94.7542L128.001 95.1631L128.146 95.5757L128.29 95.9918L128.434 96.411L128.576 96.833L128.716 97.2574L128.854 97.6839L128.987 98.112L129.116 98.5414L129.24 98.9717L129.358 99.4024L129.47 99.8331L129.575 100.263L129.672 100.693L129.76 101.121L129.84 101.547L129.91 101.971L129.97 102.393L130.02 102.811L130.058 103.225L130.085 103.636L130.1 104.042L130.103 104.442L130.093 104.838L130.069 105.227L130.033 105.611L129.982 105.987L129.918 106.357L129.84 106.718L129.747 107.072L129.64 107.418L129.519 107.755L129.382 108.083L129.232 108.402L129.066 108.712L128.887 109.011L128.692 109.301L128.484 109.58L128.261 109.849L128.024 110.107L127.774 110.355L127.51 110.591L127.233 110.817L126.942 111.032L126.64 111.235L126.325 111.428L125.998 111.609L125.66 111.78L125.311 111.939L124.951 112.088L124.582 112.226L124.203 112.354L123.815 112.471L123.418 112.579L123.014 112.676L122.603 112.764L122.184 112.843L121.76 112.913L121.331 112.974L120.896 113.027L120.457 113.073L120.015 113.111L119.57 113.142L119.122 113.167L118.673 113.186L118.222 113.2L117.771 113.209L117.32 113.213L116.87 113.214L116.421 113.212L115.974 113.207L115.53 113.2L115.088 113.191L114.65 113.182L114.216 113.172L113.786 113.163L113.362 113.155L112.943 113.148L112.529 113.144L112.122 113.143L111.722 113.144L111.329 113.15L110.943 113.161L110.564 113.176L110.194 113.198L109.832 113.225L109.478 113.259L109.133 113.301L108.797 113.35L108.469 113.408L108.151 113.474L107.842 113.549L107.542 113.634L107.251 113.729L106.969 113.834L106.696 113.949L106.432 114.075L106.178 114.212L105.932 114.361L105.695 114.521L105.466 114.692L105.246 114.876L105.034 115.071L104.83 115.278L104.633 115.497L104.444 115.727L104.261 115.97L104.086 116.224L103.917 116.49L103.753 116.768L103.596 117.056L103.443 117.356L103.296 117.667L103.152 117.988L103.013 118.319L102.877 118.66L102.745 119.01L102.615 119.369L102.487 119.737L102.361 120.113L102.237 120.496L102.113 120.886L101.99 121.283L101.866 121.685L101.743 122.092L101.618 122.505L101.492 122.921L101.364 123.34L101.234 123.762L101.102 124.185L100.966 124.61L100.827 125.035L100.685 125.46L100.538 125.884L100.387 126.306L100.231 126.726L100.07 127.142L99.904 127.554L99.7323 127.962L99.5547 128.364L99.3712 128.76L99.1814 129.149L98.9851 129.531L98.7823 129.904L98.5727 130.268L98.3563 130.622L98.133 130.967L97.9026 131.3L97.6652 131.622L97.4206 131.932L97.169 132.229L96.9103 132.513L96.6444 132.784L96.3716 133.04L96.0919 133.282L95.8053 133.51L95.5119 133.722L95.212 133.918L94.9057 134.099L94.593 134.263L94.2743 134.411L93.9497 134.543L93.6194 134.659L93.2836 134.757L92.9427 134.839L92.5968 134.904L92.2462 134.952L91.8912 134.984L91.532 134.999L91.1691 134.997L90.8026 134.98L90.4328 134.946L90.0602 134.897L89.6849 134.832L89.3073 134.752L88.9277 134.658L88.5465 134.549L88.1639 134.426L87.7803 134.29L87.3959 134.141L87.0111 133.98L86.6262 133.807L86.2414 133.623L85.8571 133.428L85.4735 133.224L85.0909 133.01L84.7095 132.788L84.3296 132.558L83.9514 132.321L83.5752 132.077L83.2011 131.829L82.8293 131.575L82.4601 131.318L82.0936 131.057L81.7299 130.794L81.3692 130.529L81.0116 130.264L80.6572 129.999L80.306 129.734L79.9582 129.471L79.6138 129.211L79.2728 128.954L78.9353 128.701L78.6013 128.452L78.2706 128.209L77.9434 127.972L77.6195 127.743L77.299 127.52L76.9816 127.306L76.6674 127.101L76.3562 126.905L76.0479 126.719L75.7424 126.544L75.4395 126.38L75.139 126.227L74.8408 126.086L74.5448 125.958L74.2506 125.843L73.9582 125.741L73.6673 125.652L73.3777 125.577L73.0892 125.515L72.8016 125.468L72.5146 125.435L72.2281 125.417L71.9417 125.412L71.6552 125.422L71.3685 125.447L71.0813 125.486L70.7934 125.539L70.5044 125.606L70.2144 125.686L69.9229 125.781L69.6298 125.888L69.3349 126.009L69.038 126.142L68.7389 126.288L68.4374 126.445L68.1335 126.614L67.8268 126.794L67.5174 126.983L67.2049 127.183L66.8895 127.392L66.5708 127.61L66.2489 127.835L65.9237 128.068L65.5951 128.308L65.2631 128.553L64.9276 128.803L64.5887 129.058L64.2463 129.317L63.9005 129.578L63.5513 129.842L63.1988 130.107L62.8431 130.372L62.4842 130.637L62.1223 130.901L61.7574 131.163L61.3898 131.423L61.0195 131.679L60.6468 131.931L60.2718 132.177L59.8948 132.418L59.5158 132.652L59.1353 132.879L58.7534 133.098L58.3703 133.308L57.9864 133.509L57.6019 133.699L57.217 133.879L56.8321 134.047L56.4474 134.204L56.0633 134.347L55.6801 134.478L55.298 134.595L54.9174 134.698L54.5386 134.787L54.1619 134.861L53.7877 134.919L53.4162 134.962L53.0477 134.989L52.6826 135L52.3212 134.995L51.9637 134.973L51.6105 134.934L51.2618 134.879L50.9178 134.808L50.579 134.719L50.2454 134.614L49.9174 134.492L49.5952 134.353L49.2789 134.198L48.9688 134.027L48.665 133.84L48.3678 133.637L48.0772 133.419L47.7933 133.186L47.5164 132.938L47.2464 132.675L46.9835 132.399L46.7276 132.109L46.4789 131.807L46.2372 131.492L46.0027 131.165L45.7752 130.828L45.5547 130.479L45.3411 130.121L45.1343 129.753L44.9341 129.376L44.7405 128.992L44.5533 128.6L44.3722 128.201L44.1971 127.797L44.0277 127.387L43.8637 126.973L43.705 126.555L43.5511 126.135L43.4019 125.712L43.2569 125.287L43.1158 124.862L42.9783 124.437L42.8441 124.013L42.7126 123.59L42.5835 123.169L42.4565 122.751L42.3311 122.336L42.2068 121.926L42.0833 121.52L41.96 121.12L41.8366 120.726L41.7126 120.339L41.5875 119.959L41.461 119.586L41.3325 119.222L41.2015 118.866L41.0677 118.52L40.9307 118.183L40.7899 117.856L40.6449 117.539L40.4953 117.233L40.3408 116.938L40.1809 116.653L40.0152 116.381L39.8434 116.119L39.6651 115.87L39.48 115.632L39.2877 115.406L39.088 115.192L38.8806 114.99L38.6652 114.8L38.4416 114.621L38.2096 114.454L37.969 114.299L37.7196 114.155L37.4613 114.022L37.194 113.901L36.9176 113.79L36.632 113.689L36.3373 113.598L36.0335 113.518L35.7205 113.446L35.3984 113.383L35.0673 113.329L34.7274 113.283L34.3787 113.245L34.0216 113.213L33.656 113.188L33.2824 113.169L32.901 113.156L32.512 113.147L32.1158 113.143L31.7127 113.143L31.3031 113.146L30.8874 113.151L30.466 113.158L30.0393 113.167L29.6078 113.176L29.172 113.186L28.7324 113.195L28.2895 113.203L27.8438 113.209L27.3959 113.213L26.9465 113.214L26.4959 113.212L26.0449 113.206L25.5941 113.195L25.144 113.179L24.6952 113.158L24.2485 113.13L23.8043 113.096L23.3634 113.055L22.9263 113.007L22.4937 112.95L22.0663 112.885L21.6445 112.812L21.229 112.729L20.8204 112.638L20.4194 112.536L20.0264 112.425L19.642 112.303L19.2667 112.171L18.9012 112.029L18.5458 111.876L18.2011 111.712L17.8675 111.537L17.5455 111.351L17.2354 111.154L16.9378 110.946L16.6528 110.726L16.3809 110.496L16.1224 110.255L15.8775 110.003L15.6464 109.741L15.4295 109.468L15.2267 109.184L15.0383 108.89L14.8645 108.587L14.7051 108.273L14.5604 107.951L14.4302 107.619L14.3146 107.278L14.2134 106.929L14.1266 106.572L14.054 106.207L13.9955 105.835L13.9508 105.455L13.9196 105.07L13.9017 104.678L13.8967 104.28L13.9044 103.877L13.9243 103.469L13.9559 103.057L13.999 102.641L14.0529 102.221L14.1171 101.799L14.1912 101.374L14.2746 100.947L14.3667 100.518L14.4669 100.088L14.5746 99.6577L14.6891 99.2269L14.8098 98.7963L14.9359 98.3663L15.0669 97.9374L15.2019 97.5099L15.3403 97.0842L15.4814 96.6608L15.6244 96.2399L15.7685 95.8219L15.9131 95.4072L16.0574 94.9961L16.2007 94.5888L16.3422 94.1857L16.4812 93.787L16.6169 93.3929L16.7488 93.0037L16.876 92.6196L16.9978 92.2407L17.1137 91.8673L17.2229 91.4993L17.3248 91.1371L17.4188 90.7805L17.5043 90.4298L17.5807 90.085L17.6475 89.7461L17.7041 89.413L17.7501 89.0859L17.7851 88.7645L17.8085 88.449L17.8199 88.1392L17.8192 87.835L17.8058 87.5364L17.7795 87.2431L17.7402 86.955L17.6874 86.672L17.6212 86.3938L17.5412 86.1204L17.4476 85.8514L17.3401 85.5867L17.2187 85.3259L17.0836 85.069L16.9347 84.8155L16.7723 84.5653L16.5963 84.3181L16.407 84.0735L16.2046 83.8314L15.9894 83.5914L15.7617 83.3532L15.5219 83.1165L15.2702 82.881L15.0072 82.6465L14.7332 82.4126L14.4488 82.179L14.1544 81.9455L13.8507 81.7117L13.5381 81.4774L13.2173 81.2423L12.889 81.0062L12.5537 80.7687L12.2122 80.5296L11.8652 80.2887L11.5134 80.0458L11.1574 79.8005L10.7982 79.5528L10.4364 79.3025L10.0729 79.0493L9.70837 78.793L9.34368 78.5337L8.97964 78.271L8.61704 78.0048L8.25669 77.7352L7.89942 77.4619L7.54603 77.185L7.19731 76.9043L6.85408 76.6198L6.5171 76.3316L6.18716 76.0395L5.86503 75.7436L5.55144 75.444L5.24712 75.1406L4.95278 74.8336L4.66912 74.523L4.39679 74.2089L4.13644 73.8914L3.88867 73.5707L3.65408 73.2468L3.4332 72.9199L3.22658 72.5902L3.03469 72.2578L2.85799 71.923L2.69691 71.5859L2.55181 71.2466L2.42306 70.9056L2.31095 70.5628L2.21576 70.2187L2.13771 69.8733L2.07698 69.527L2.03372 69.1799L2.00804 68.8324L2 68.4846L2.00961 68.1369L2.03686 67.7894L2.08167 67.4424L2.14394 67.0962L2.22352 66.7509L2.32023 66.4068L2.43383 66.0643L2.56404 65.7233L2.71057 65.3843L2.87306 65.0474L3.05112 64.7127L3.24434 64.3806L3.45225 64.0511L3.67436 63.7245L3.91015 63.4009L4.15906 63.0804L4.42051 62.7632L4.69387 62.4494L4.9785 62.1391L5.27375 61.8324L5.57892 61.5294L5.8933 61.2301L6.21616 60.9346L6.54676 60.6428L6.88432 60.3549L7.22807 60.0708L7.57724 59.7904L7.93101 59.5138L8.28859 59.2409L8.64916 58.9716L9.01192 58.7058L9.37606 58.4434L9.74076 58.1842L10.1052 57.9283L10.4686 57.6753L10.8302 57.4252L11.1892 57.1778L11.5448 56.9328L11.8962 56.69L12.2428 56.4493L12.5838 56.2104L12.9185 55.973L13.2461 55.7369L13.5662 55.5019L13.878 55.2677L14.1809 55.034L14.4744 54.8004L14.7579 54.5669L15.031 54.3329L15.293 54.0983L15.5436 53.8627L15.7824 53.6259L16.009 53.3876L16.2231 53.1474L16.4243 52.905L16.6124 52.6602L16.7872 52.4128L16.9485 52.1623L17.0962 51.9085L17.2301 51.6512L17.3502 51.3902L17.4564 51.1251L17.5489 50.8557L17.6276 50.5818L17.6926 50.3033L17.7442 50.0198L17.7824 49.7313L17.8075 49.4375L17.8197 49.1383L17.8194 48.8337L17.8069 48.5234L17.7824 48.2073L17.7465 47.8855L17.6995 47.5578L17.642 47.2242L17.5743 46.8848L17.4971 46.5394L17.4108 46.1882L17.3161 45.8312L17.2135 45.4684L17.1037 45.1L16.9873 44.726L16.8649 44.3467L16.7372 43.9621L16.605 43.5725L16.4689 43.178L16.3297 42.7789L16.188 42.3754L16.0446 41.9677L15.9003 41.5563L15.7557 41.1412L15.6116 40.723L15.4688 40.3019L15.3279 39.8782L15.1898 39.4524L15.0551 39.0247L14.9245 38.5957L14.7988 38.1656L14.6787 37.735L14.5648 37.3043L14.4577 36.8738L14.3582 36.4441L14.2669 36.0155L14.1843 35.5886L14.111 35.1638L14.0476 34.7415L13.9947 34.3223L13.9526 33.9066L13.922 33.4948L13.9032 33.0874L13.8967 32.6848L13.9027 32.2876L13.9218 31.8961L13.9542 31.5108L14.0001 31.1321L14.0599 30.7604L14.1338 30.3961L14.2218 30.0396L14.3243 29.6912L14.4412 29.3514L14.5726 29.0204L14.7187 28.6985L14.8793 28.386L15.0545 28.0833L15.2441 27.7905L15.4481 27.5079L15.6664 27.2357L15.8987 26.9741L16.1448 26.7231L16.4045 26.483L16.6776 26.2539L16.9637 26.0357L17.2625 25.8286L17.5736 25.6326L17.8967 25.4476L18.2312 25.2736L18.5769 25.1106L18.9332 24.9584L19.2997 24.8168L19.6757 24.6858L20.0609 24.5652L20.4547 24.4547L20.8564 24.3541L21.2656 24.2631L21.6817 24.1814L22.104 24.1087L22.532 24.0447L22.965 23.9889L23.4024 23.941L23.8436 23.9005L24.288 23.8671L24.735 23.8401L25.1839 23.8192L25.6341 23.8039L26.085 23.7936L26.536 23.7877L26.9864 23.7858L27.4358 23.7873L27.8835 23.7916L28.3289 23.798L28.7716 23.8062L29.2108 23.8153L29.6463 23.8248L30.0774 23.8342L30.5036 23.8427L30.9245 23.8498L31.3397 23.855L31.7488 23.8575L32.1513 23.8567L32.5469 23.8522L32.9352 23.8433L33.3159 23.8294L33.6888 23.81L34.0536 23.7845L34.4101 23.7524L34.7579 23.7132L35.0971 23.6664L35.4273 23.6116L35.7486 23.5482L36.0608 23.4758L36.3639 23.3941L36.6578 23.3026L36.9425 23.201L37.2181 23.0891L37.4846 22.9664L37.7421 22.8327L37.9907 22.6879L38.2305 22.5316L38.4618 22.3638L38.6847 22.1842L38.8993 21.9929L39.1061 21.7897L39.3051 21.5746L39.4967 21.3476L39.6812 21.1087L39.8589 20.8581L40.0302 20.5958L40.1953 20.322L40.3547 20.0369L40.5088 19.7406L40.6579 19.4335L40.8025 19.1158L40.943 18.7879L41.0798 18.4501L41.2133 18.1028L41.344 17.7464L41.4723 17.3813L41.5987 17.0081L41.7237 16.6272L41.8476 16.2392L41.971 15.8446L42.0942 15.444L42.2178 15.038L42.3422 14.6273L42.4677 14.2125L42.5949 13.7942L42.7242 13.3731L42.8559 12.95L42.9904 12.5255L43.1282 12.1003L43.2696 11.6752L43.4149 11.2509L43.5646 10.8282L43.7189 10.4077L43.8781 9.99024L44.0425 9.57656L44.2124 9.16738L44.388 8.76344L44.5697 8.36546L44.7575 7.97417L44.9516 7.59026L45.1524 7.21442L45.3598 6.84735L45.574 6.48969L45.7951 6.1421L46.0232 5.8052L46.2584 5.47958L46.5007 5.16582L46.7501 4.86448L47.0065 4.57608L47.2701 4.30111L47.5407 4.04005L47.8183 3.79332L48.1027 3.56133L48.3939 3.34445L48.6917 3.14301L48.9961 2.95731L49.3067 2.78761L49.6235 2.63414L49.9463 2.49707L50.2748 2.37656L50.6089 2.27271L50.9482 2.18559L51.2925 2.11523L51.6417 2.06161L51.9953 2.02469L52.3531 2.00436L52.7149 2.00049L53.0803 2.01291L53.4491 2.04141L53.8208 2.08574L54.1953 2.1456L54.5722 2.22066L54.9511 2.31056L55.3319 2.41491L55.7141 2.53326L56.0974 2.66514L56.4816 2.81005L56.8662 2.96746L57.2512 3.13679L57.636 3.31747L58.0205 3.50887L58.4044 3.71033L58.7874 3.9212L59.1692 4.14079L59.5496 4.36837L59.9283 4.60322L60.3052 4.8446L60.68 5.09174L61.0525 5.34387L61.4225 5.6002L61.7899 5.85995L62.1545 6.12232L62.5162 6.3865L62.8748 6.65169L63.2303 6.91708L63.5825 7.18188L63.9314 7.44529L64.2769 7.70652L64.6189 7.96479L64.9575 8.21932L65.2927 8.46936L65.6244 8.71417L65.9527 8.95302L66.2776 9.18521L66.5993 9.41005L66.9176 9.62687L67.2328 9.83505L67.545 10.034L67.8542 10.223L68.1606 10.4017L68.4643 10.5695L68.7655 10.7258L69.0644 10.8703L69.3611 11.0025L69.6559 11.122L69.9488 11.2284L70.2402 11.3216L70.5302 11.4011L70.819 11.4668L71.1068 11.5185L71.394 11.556L71.6807 11.5792L71.9671 11.588L72.2535 11.5825L72.5401 11.5626L72.8271 11.5284L73.1148 11.4799L73.4034 11.4174L73.6931 11.3411L73.9841 11.251L74.2767 11.1476L74.571 11.0311L74.8672 10.9017L75.1656 10.7601L75.4663 10.6064L75.7694 10.4412L76.0752 10.265L76.3837 10.0783L76.6952 9.88159L77.0097 9.67548L77.3273 9.46059L77.6482 9.23753L77.9723 9.00697L78.2998 8.76959L78.6308 8.52609L78.9652 8.27718L79.303 8.02361L79.6443 7.76614L79.989 7.50552L80.3371 7.24254L80.6885 6.97799L81.0432 6.71266L81.4011 6.44735L81.7621 6.18287L82.126 5.92002L82.4928 5.6596L82.8623 5.40241L83.2342 5.14924L83.6085 4.90089L83.9849 4.65812L84.3633 4.4217L84.7433 4.19238L85.1248 3.9709L85.5075 3.75797L85.8912 3.55428L86.2756 3.36051L86.6604 3.17732L87.0453 3.00532L87.4301 2.84512L87.8144 2.69729L88.198 2.56237L88.5804 2.44087L88.9615 2.33327L89.3409 2.24001L89.7183 2.16151L90.0934 2.09812L90.4658 2.0502L90.8352 2.01805L91.2014 2.00191L91.5641 2.00202L91.9229 2.01855L92.2775 2.05166L92.6277 2.10143L92.9731 2.16795L93.3136 2.25122L93.6489 2.35123L93.9787 2.46792L94.3028 2.60119L94.621 2.75092L94.9331 2.91691L95.2389 3.09895L95.5383 3.2968L95.831 3.51016L96.117 3.73871L96.3961 3.98209L96.6683 4.2399L96.9335 4.51171L97.1916 4.79707L97.4427 5.09548L97.6866 5.40643L97.9234 5.72938L98.1531 6.06374L98.3758 6.40893L98.5916 6.76433L98.8006 7.1293L99.0028 7.50318L99.1985 7.8853L99.3877 8.27496L99.5708 8.67147L99.7478 9.0741L99.919 9.48214L100.085 9.89485L100.245 10.3115L100.4 10.7313L100.551 11.1536L100.697 11.5776L100.84 12.0026L100.978 12.4278L101.113 12.8526L101.246 13.2761L101.376 13.6977L101.503 14.1167L101.629 14.5324L101.754 14.9441L101.877 15.3512L102.001 15.7531L102.124 16.1491L102.248 16.5387L102.372 16.9212L102.499 17.2963L102.626 17.6632L102.756 18.0217L102.889 18.3711L103.025 18.7112L103.165 19.0414L103.308 19.3615L103.456 19.671L103.609 19.9698L103.768 20.2575L103.931 20.5339L104.101 20.7989L104.277 21.0522L104.46 21.2937L104.65 21.5235L104.848 21.7413L105.052 21.9473L105.265 22.1413L105.486 22.3236L105.716 22.4941L105.953 22.653L106.2 22.8005L106.455 22.9367L106.72 23.0618L106.993 23.1763L107.276 23.2802L107.568 23.3739L107.869 23.4579L108.179 23.5323L108.498 23.5978L108.826 23.6546L109.163 23.7032L109.509 23.7441L109.864 23.7777L110.227 23.8047L110.598 23.8254L110.977 23.8405L111.363 23.8506L111.757 23.8561L112.158 23.8576L112.566 23.8558L112.98 23.8512L113.399 23.8445L113.824 23.8362L114.254 23.827L114.689 23.8175L115.127 23.8082L115.569 23.7998L116.014 23.7929L116.461 23.7881L116.91 23.7859L117.36 23.787L117.811 23.7918L118.262 23.8011L118.713 23.8152L119.162 23.8348L119.609 23.8603L120.055 23.8922L120.497 23.9311L120.935 23.9772L121.369 24.0312L121.798 24.0933L122.222 24.1639L122.639 24.2435L123.05 24.3323L123.454 24.4307L123.849 24.5389L124.237 24.6572L124.615 24.7858L124.983 24.9249L125.342 25.0747L125.69 25.2352L126.027 25.4067L126.353 25.5891L126.667 25.7826L126.969 25.9872L127.258 26.2028L127.534 26.4294L127.797 26.667L128.046 26.9155L128.281 27.1747L128.503 27.4445L128.71 27.7247L128.903 28.0151L129.082 28.3156L129.246 28.6259L129.395 28.9456L129.53 29.2745L129.65 29.6124L129.756 29.9589L129.847 30.3135L129.924 30.6761L129.987 31.0461L130.036 31.4232L130.072 31.8071L130.094 32.1972L130.103 32.5931L130.099 32.9945L130.083 33.4008L130.055 33.8116L130.016 34.2265L129.965 34.6449L129.904 35.0665L129.833 35.4908L129.753 35.9173L129.663 36.3455L129.566 36.775L129.46 37.2053L129.348 37.6361L129.229 38.0668L129.105 38.497L128.975 38.9263L128.841 39.3543L128.704 39.7806L128.564 40.2048L128.421 40.6265L128.277 41.0454L128.133 41.4612L127.988 41.8735L127.845 42.2821L127.703 42.6866L127.563 43.0867L127.426 43.4823L127.293 43.873L127.164 44.2588L127.04 44.6393L126.922 45.0145L126.811 45.3843L126.707 45.7483L126.61 46.1067L126.522 46.4593L126.443 46.806L126.373 47.1468L126.313 47.4817L126.263 47.8107L126.225 48.1339L126.198 48.4513L126.182 48.7629L126.179 49.0688L126.189 49.3693L126.211 49.6643L126.246 49.954L126.294 50.2386L126.356 50.5183L126.432 50.7932L126.521 51.0636L126.624 51.3296L126.741 51.5916L126.872 51.8497L127.016 52.1043L127.175 52.3555L127.346 52.6036L127.531 52.849L127.73 53.0919L127.941 53.3326L128.164 53.5713L128.4 53.8085L128.648 54.0443L128.908 54.2791L129.178 54.5132L129.46 54.7468L129.751 54.9803L130.052 55.214L130.361 55.4481L130.68 55.6829L131.006 55.9187L131.339 56.1557L131.678 56.3942L132.024 56.6345L132.374 56.8768L132.729 57.1213L133.087 57.3682L133.448 57.6176L133.811 57.8699L134.175 58.1252L134.54 58.3835L134.905 58.6452L135.268 58.9102L135.629 59.1787L135.987 59.4508L136.342 59.7266L136.692 60.0061L137.037 60.2893L137.376 60.5764L137.709 60.8672L138.033 61.1619L138.35 61.4603L138.657 61.7625L138.955 62.0684L139.242 62.3778L139.518 62.6908L139.782 63.0072L140.034 63.327L140.273 63.6499L140.498 63.9758L140.709 64.3047L140.906 64.6362L141.087 64.9703L141.253 65.3067L141.404 65.6453L141.538 65.9858L141.655 66.328L141.756 66.6717L141.839 67.0168L141.906 67.3628L141.954 67.7096L141.986 68.057L141.999 68.4048L142 68.5001Z" stroke="#623AE9" stroke-opacity="0.25" stroke-width="3"/>
</svg>
