<svg width="239" height="239" viewBox="0 0 239 239" fill="none" xmlns="http://www.w3.org/2000/svg">
<rect width="239" height="239" rx="10" fill="url(#paint0_linear_58_14)"/>
<path d="M58.088 92.88C68.4133 92.88 76.8187 94.6293 83.304 98.128C89.7893 101.541 93.032 107.131 93.032 114.896V141.264C93.032 142.715 93.3733 143.909 94.056 144.848C94.7387 145.787 95.7627 146.256 97.128 146.256H101.736V160.976C101.48 161.147 100.797 161.445 99.688 161.872C98.664 162.213 97.1707 162.555 95.208 162.896C93.2453 163.323 90.984 163.536 88.424 163.536C83.4747 163.536 79.3787 162.811 76.136 161.36C72.9787 159.824 70.8027 157.733 69.608 155.088C66.3653 157.648 62.7387 159.696 58.728 161.232C54.7173 162.768 50.024 163.536 44.648 163.536C28.776 163.536 20.84 157.221 20.84 144.592C20.84 138.021 22.5893 133.029 26.088 129.616C29.672 126.117 34.792 123.728 41.448 122.448C48.104 121.168 56.808 120.528 67.56 120.528V117.2C67.56 114.555 66.6213 112.549 64.744 111.184C62.952 109.819 60.6053 109.136 57.704 109.136C55.0587 109.136 52.7547 109.605 50.792 110.544C48.9147 111.483 47.976 112.976 47.976 115.024V115.536H22.888C22.8027 115.109 22.76 114.512 22.76 113.744C22.76 107.344 25.7893 102.267 31.848 98.512C37.992 94.7573 46.7387 92.88 58.088 92.88ZM67.56 132.56C60.3067 132.56 54.9307 133.371 51.432 134.992C48.0187 136.528 46.312 138.619 46.312 141.264C46.312 145.531 49.2133 147.664 55.016 147.664C58.344 147.664 61.2453 146.768 63.72 144.976C66.28 143.184 67.56 140.965 67.56 138.32V132.56ZM190.823 92.88C198.503 92.88 204.263 95.0987 208.103 99.536C211.943 103.888 213.863 110.117 213.863 118.224V162H188.391V121.296C188.391 118.395 187.666 116.091 186.215 114.384C184.85 112.592 182.887 111.696 180.327 111.696C177.34 111.696 174.908 112.72 173.031 114.768C171.154 116.816 170.215 119.333 170.215 122.32V162H144.743V121.296C144.743 118.395 144.018 116.091 142.567 114.384C141.202 112.592 139.239 111.696 136.679 111.696C133.692 111.696 131.26 112.72 129.383 114.768C127.506 116.816 126.567 119.333 126.567 122.32V162H101.095V94.416H121.959L123.623 104.528C126.183 100.944 129.554 98.128 133.735 96.08C138.002 93.9467 142.482 92.88 147.175 92.88C157.33 92.88 164.156 96.7627 167.655 104.528C170.3 100.944 173.671 98.128 177.767 96.08C181.948 93.9467 186.3 92.88 190.823 92.88Z" fill="white"/>
<defs>
<linearGradient id="paint0_linear_58_14" x1="214.5" y1="0.326539" x2="119.5" y2="239" gradientUnits="userSpaceOnUse">
<stop stop-color="#BA3DB2"/>
<stop offset="1" stop-color="#3D2397"/>
</linearGradient>
</defs>
</svg>
