<svg width="43" height="54" viewBox="0 0 43 54" fill="#bd3fbf" xmlns="http://www.w3.org/2000/svg">
<path d="M21.5 29.7C18.8573 29.7 16.6289 28.7888 14.8148 26.9663C13.0008 25.1438 12.0938 22.905 12.0938 20.25C12.0938 17.595 13.0008 15.3563 14.8148 13.5338C16.6289 11.7113 18.8573 10.8 21.5 10.8C24.1427 10.8 26.3711 11.7113 28.1852 13.5338C29.9992 15.3563 30.9063 17.595 30.9063 20.25C30.9063 22.905 29.9992 25.1438 28.1852 26.9663C26.3711 28.7888 24.1427 29.7 21.5 29.7ZM21.5 24.3C22.6646 24.3 23.6276 23.9175 24.3891 23.1525C25.1505 22.3875 25.5313 21.42 25.5313 20.25C25.5313 19.08 25.1505 18.1125 24.3891 17.3475C23.6276 16.5825 22.6646 16.2 21.5 16.2C20.3354 16.2 19.3724 16.5825 18.6109 17.3475C17.8495 18.1125 17.4688 19.08 17.4688 20.25C17.4688 21.42 17.8495 22.3875 18.6109 23.1525C19.3724 23.9175 20.3354 24.3 21.5 24.3ZM21.5 54C15.274 52.425 10.1341 48.8363 6.08047 43.2338C2.02682 37.6313 0 31.41 0 24.57V8.1L21.5 0L43 8.1V24.57C43 31.41 40.9732 37.6313 36.9195 43.2338C32.8659 48.8363 27.726 52.425 21.5 54ZM21.5 5.7375L5.375 11.8125V24.57C5.375 27 5.71094 29.3625 6.38281 31.6575C7.05469 33.9525 7.97292 36.1125 9.1375 38.1375C11.0188 37.1925 12.9896 36.45 15.05 35.91C17.1104 35.37 19.2604 35.1 21.5 35.1C23.7396 35.1 25.8896 35.37 27.95 35.91C30.0104 36.45 31.9813 37.1925 33.8625 38.1375C35.0271 36.1125 35.9453 33.9525 36.6172 31.6575C37.2891 29.3625 37.625 27 37.625 24.57V11.8125L21.5 5.7375ZM21.5 40.5C19.8875 40.5 18.3198 40.68 16.7969 41.04C15.274 41.4 13.8182 41.895 12.4297 42.525C13.7286 43.875 15.1396 45.045 16.6625 46.035C18.1854 47.025 19.7979 47.79 21.5 48.33C23.2021 47.79 24.8146 47.025 26.3375 46.035C27.8604 45.045 29.2714 43.875 30.5703 42.525C29.1818 41.895 27.726 41.4 26.2031 41.04C24.6802 40.68 23.1125 40.5 21.5 40.5Z"/>
</svg>
