<svg width="64" height="64" viewBox="0 0 64 64" fill="none" xmlns="http://www.w3.org/2000/svg">
    <path fill-rule="evenodd" clip-rule="evenodd" d="M63 31.9999L62.9954 31.9999L62.9814 32.0001L62.9582 32.0007L62.9257 32.0019L62.8839 32.0038L62.833 32.0066L62.7728 32.0105L62.7035 32.0157L62.6251 32.0224L62.5377 32.0307L62.4413 32.0409L62.336 32.0531L62.2219 32.0674L62.099 32.0841L61.9674 32.1033L61.8272 32.1252L61.6786 32.15L61.5216 32.1778L61.3563 32.2087L61.1829 32.243L61.0014 32.2807L60.8121 32.3221L60.6149 32.3672L60.4101 32.4162L60.1978 32.4693L59.9781 32.5266L59.7513 32.5882L59.5174 32.6542L59.2766 32.7247L59.029 32.7999L58.775 32.8799L58.5145 32.9648L58.2478 33.0547L57.9751 33.1496L57.6966 33.2497L57.4124 33.3551L57.1227 33.4658L56.8278 33.5819L56.5278 33.7035L56.2229 33.8306L55.9134 33.9633L55.5994 34.1016L55.2811 34.2457L54.9588 34.3954L54.6327 34.551L54.3029 34.7123L53.9698 34.8795L53.6334 35.0525L53.2941 35.2313L52.952 35.416L52.6074 35.6065L52.2604 35.8028L51.9114 36.005L51.5605 36.2129L51.208 36.4267L50.854 36.6461L50.4988 36.8713L50.1427 37.1021L49.7857 37.3386L49.4282 37.5805L49.0704 37.828L48.7124 38.0808L48.3546 38.339L47.997 38.6025L47.64 38.8711L47.2837 39.1447L46.9284 39.4234L46.5742 39.7069L46.2213 39.9952L45.87 40.2881L45.5204 40.5856L45.1728 40.8874L44.8273 41.1935L44.4841 41.5037L44.1434 41.818L43.8054 42.136L43.4702 42.4578L43.1381 42.7831L42.8092 43.1117L42.4836 43.4436L42.1615 43.7785L41.8432 44.1163L41.5287 44.4568L41.2181 44.7998L40.9117 45.1452L40.6095 45.4926L40.3117 45.8421L40.0184 46.1933L39.7297 46.546L39.4458 46.9001L39.1668 47.2554L38.8927 47.6116L38.6237 47.9686L38.3598 48.3261L38.1012 48.6839L37.848 49.0419L37.6001 49.3997L37.3577 49.7572L37.1208 50.1142L36.8895 50.4705L36.6639 50.8258L36.444 51.1798L36.2298 51.5325L36.0214 51.8835L35.8187 52.2327L35.6219 52.5798L35.431 52.9246L35.2458 53.2669L35.0665 53.6065L34.8931 53.9431L34.7255 54.2765L34.5637 54.6066L34.4077 54.933L34.2574 55.2556L34.1129 55.5742L33.9741 55.8886L33.841 56.1985L33.7134 56.5037L33.5914 56.8041L33.4749 57.0994L33.3638 57.3895L33.258 57.6742L33.1575 57.9532L33.0621 58.2263L32.9719 58.4935L32.8866 58.7545L32.8062 59.0091L32.7306 59.2571L32.6597 59.4985L32.5933 59.7329L32.5314 59.9604L32.4738 60.1806L32.4204 60.3935L32.371 60.5989L32.3256 60.7967L32.2839 60.9867L32.2459 61.1688L32.2114 61.3428L32.1802 61.5088L32.1522 61.6664L32.1272 61.8157L32.105 61.9566L32.0856 62.0888L32.0687 62.2124L32.0542 62.3273L32.0418 62.4333L32.0315 62.5304L32.0231 62.6185L32.0162 62.6976L32.0109 62.7676L32.0069 62.8285L32.004 62.8802L32.002 62.9227L32.0008 62.956L32.0002 62.9799L32 62.9946L31.9999 63L31.9999 62.9961L31.9997 62.9829L31.9992 62.9604L31.9981 62.9286L31.9963 62.8876L31.9935 62.8374L31.9897 62.778L31.9846 62.7094L31.978 62.6317L31.9698 62.545L31.9598 62.4493L31.9478 62.3447L31.9336 62.2313L31.9171 62.1091L31.8981 61.9782L31.8764 61.8387L31.8519 61.6908L31.8244 61.5344L31.7937 61.3698L31.7597 61.197L31.7223 61.0162L31.6812 60.8274L31.6364 60.6309L31.5876 60.4267L31.5349 60.215L31.478 59.9959L31.4167 59.7696L31.3511 59.5363L31.2809 59.296L31.206 59.049L31.1264 58.7954L31.0419 58.5355L30.9525 58.2693L30.8579 57.9971L30.7583 57.719L30.6533 57.4352L30.5431 57.146L30.4274 56.8515L30.3063 56.5519L30.1796 56.2474L30.0473 55.9382L29.9094 55.6246L29.7658 55.3066L29.6165 54.9846L29.4614 54.6588L29.3006 54.3293L29.1339 53.9964L28.9614 53.6603L28.783 53.3212L28.5988 52.9793L28.4088 52.6349L28.2129 52.2881L28.0112 51.9393L27.8037 51.5885L27.5904 51.2361L27.3714 50.8822L27.1467 50.5271L26.9163 50.171L26.6803 49.8141L26.4388 49.4567L26.1918 49.0989L25.9393 48.7409L25.6816 48.3831L25.4186 48.0255L25.1504 47.6684L24.8771 47.3121L24.5988 46.9566L24.3157 46.6023L24.0278 46.2493L23.7352 45.8979L23.4381 45.5482L23.1366 45.2004L22.8309 44.8547L22.521 44.5113L22.2071 44.1704L21.8893 43.8322L21.5678 43.4968L21.2428 43.1644L20.9144 42.8352L20.5828 42.5094L20.2481 42.187L19.9105 41.8684L19.5702 41.5535L19.2274 41.2426L18.8823 40.9359L18.535 40.6333L18.1857 40.3352L17.8346 40.0415L17.482 39.7525L17.128 39.4682L16.7728 39.1888L16.4167 38.9143L16.0597 38.6449L15.7023 38.3806L15.3445 38.1216L14.9865 37.8679L14.6286 37.6196L14.2711 37.3767L13.914 37.1394L13.5577 36.9077L13.2024 36.6816L12.8482 36.4612L12.4954 36.2466L12.1442 36.0377L11.7949 35.8346L11.4476 35.6373L11.1026 35.4459L10.7601 35.2603L10.4203 35.0805L10.0835 34.9066L9.7498 34.7386L9.41948 34.5763L9.09275 34.4198L8.76982 34.2691L8.45091 34.1242L8.13621 33.9849L7.82595 33.8513L7.52032 33.7233L7.21953 33.6009L6.92378 33.4839L6.63327 33.3724L6.34819 33.2662L6.06874 33.1652L5.79509 33.0695L5.52745 32.9788L5.26598 32.8931L5.01087 32.8124L4.76229 32.7364L4.52041 32.6651L4.28539 32.5984L4.05739 32.5361L3.83658 32.4782L3.6231 32.4244L3.4171 32.3747L3.21871 32.329L3.02809 32.287L2.84535 32.2487L2.67063 32.2139L2.50405 32.1825L2.34572 32.1542L2.19575 32.129L2.05424 32.1066L1.9213 32.087L1.79701 32.0699L1.68147 32.0552L1.57475 32.0427L1.47693 32.0322L1.38808 32.0236L1.30825 32.0167L1.23751 32.0112L1.1759 32.0071L1.12346 32.0041L1.08024 32.0021L1.04627 32.0009L1.02156 32.0002L1.00613 31.9999L1 31.9999L1.00317 31.9999L1.01563 31.9997L1.03739 31.9992L1.06842 31.9981L1.1087 31.9964L1.1582 31.9937L1.21689 31.99L1.28473 31.985L1.36167 31.9785L1.44765 31.9705L1.54262 31.9606L1.64652 31.9488L1.75926 31.9348L1.88077 31.9185L2.01096 31.8997L2.14975 31.8782L2.29703 31.8539L2.45271 31.8266L2.61668 31.7962L2.78882 31.7625L2.96902 31.7253L3.15715 31.6845L3.35307 31.64L3.55666 31.5916L3.76778 31.5392L3.98627 31.4826L4.21199 31.4217L4.44479 31.3564L4.68451 31.2866L4.93097 31.2121L5.18402 31.1329L5.44348 31.0488L5.70918 30.9597L5.98093 30.8656L6.25856 30.7663L6.54186 30.6618L6.83067 30.552L7.12477 30.4367L7.42397 30.316L7.72808 30.1898L8.03689 30.058L8.3502 29.9206L8.66779 29.7774L8.98947 29.6286L9.31501 29.4739L9.64421 29.3135L9.97685 29.1473L10.3127 28.9752L10.6516 28.7974L10.9932 28.6136L11.3375 28.424L11.684 28.2286L12.0327 28.0274L12.3834 27.8203L12.7356 27.6075L13.0894 27.389L13.4444 27.1647L13.8004 26.9348L14.1573 26.6992L14.5147 26.4581L14.8725 26.2116L15.2304 25.9596L15.5883 25.7022L15.9459 25.4396L16.303 25.1718L16.6595 24.8989L17.015 24.6211L17.3694 24.3383L17.7225 24.0508L18.0741 23.7586L18.4239 23.4619L18.7719 23.1607L19.1177 22.8553L19.4613 22.5457L19.8024 22.2321L20.1409 21.9146L20.4765 21.5935L20.8091 21.2687L21.1386 20.9406L21.4647 20.6092L21.7873 20.2748L22.1062 19.9374L22.4214 19.5973L22.7326 19.2547L23.0397 18.9097L23.3426 18.5626L23.6411 18.2135L23.9351 17.8626L24.2245 17.51L24.5092 17.1561L24.789 16.801L25.0639 16.445L25.3337 16.0881L25.5984 15.7306L25.8578 15.3729L26.112 15.0149L26.3607 14.657L26.604 14.2994L26.8417 13.9423L27.0739 13.586L27.3004 13.2305L27.5212 12.8762L27.7364 12.5233L27.9457 12.172L28.1493 11.8225L28.347 11.4751L28.5389 11.1299L28.725 10.7872L28.9052 10.4472L29.0796 10.1101L29.2481 9.77613L29.4108 9.44554L29.5678 9.11851L29.7189 8.79527L29.8643 8.47602L30.004 8.16098L30.1381 7.85036L30.2665 7.54435L30.3894 7.24317L30.5068 6.94701L30.6188 6.65607L30.7254 6.37056L30.8268 6.09065L30.9229 5.81653L31.014 5.5484L31.1001 5.28644L31.1812 5.03081L31.2576 4.7817L31.3292 4.53928L31.3963 4.30371L31.4589 4.07515L31.5172 3.85376L31.5713 3.63969L31.6213 3.43308L31.6673 3.23409L31.7096 3.04284L31.7482 2.85947L31.7832 2.68411L31.815 2.51687L31.8435 2.35788L31.8689 2.20724L31.8915 2.06505L31.9114 1.93142L31.9286 1.80645L31.9435 1.6902L31.9562 1.58278L31.9668 1.48425L31.9756 1.39468L31.9827 1.31413L31.9882 1.24266L31.9924 1.18032L31.9955 1.12716L31.9976 1.0832L31.9989 1.04849L31.9996 1.02304L31.9999 1.00687L31.9999 1L32 1.00243L32.0001 1.01415L32.0006 1.03517L32.0016 1.06546L32.0033 1.105L32.0059 1.15377L32.0095 1.21173L32.0144 1.27884L32.0207 1.35506L32.0286 1.44033L32.0383 1.53459L32.05 1.63777L32.0638 1.74981L32.08 1.87063L32.0986 2.00013L32.1198 2.13824L32.1439 2.28485L32.1709 2.43987L32.2011 2.60318L32.2345 2.77468L32.2714 2.95424L32.3119 3.14174L32.3561 3.33705L32.4042 3.54003L32.4563 3.75055L32.5126 3.96847L32.5731 4.19362L32.6381 4.42586L32.7075 4.66503L32.7816 4.91097L32.8605 5.1635L32.9442 5.42246L33.0328 5.68766L33.1265 5.95894L33.2254 6.2361L33.3295 6.51897L33.4389 6.80734L33.5537 7.10103L33.674 7.39983L33.7997 7.70356L33.9311 8.012L34.0681 8.32496L34.2108 8.64222L34.3592 8.96358L34.5134 9.28883L34.6733 9.61774L34.8391 9.95011L35.0107 10.2857L35.1881 10.6244L35.3714 10.9658L35.5605 11.3098L35.7554 11.6562L35.9562 12.0048L36.1628 12.3552L36.3751 12.7074L36.5932 13.0611L36.8171 13.416L37.0465 13.772L37.2816 14.1287L37.5223 14.4861L37.7684 14.8439L38.02 15.2018L38.2769 15.5597L38.5391 15.9174L38.8065 16.2745L39.0789 16.631L39.3564 16.9866L39.6388 17.3411L39.9259 17.6943L40.2178 18.046L40.5141 18.396L40.8149 18.7441L41.12 19.0902L41.4293 19.4339L41.7426 19.7752L42.0597 20.1139L42.3806 20.4498L42.7051 20.7826L43.033 21.1124L43.3641 21.4387L43.6983 21.7616L44.0354 22.0809L44.3753 22.3964L44.7177 22.7079L45.0625 23.0153L45.4095 23.3185L45.7584 23.6174L46.1092 23.9118L46.4616 24.2015L46.8154 24.4866L47.1704 24.7668L47.5264 25.0421L47.8833 25.3123L48.2407 25.5774L48.5984 25.8373L48.9564 26.0918L49.3143 26.341L49.6719 26.5847L50.029 26.8229L50.3855 27.0555L50.741 27.2825L51.0954 27.5038L51.4484 27.7194L51.7998 27.9292L52.1495 28.1332L52.4971 28.3314L52.8425 28.5238L53.1854 28.7103L53.5256 28.891L53.8629 29.0658L54.1972 29.2348L54.528 29.398L54.8553 29.5554L55.1789 29.707L55.4985 29.8529L55.8138 29.993L56.1248 30.1275L56.4312 30.2564L56.7328 30.3798L57.0293 30.4976L57.3207 30.61L57.6067 30.717L57.887 30.8188L58.1616 30.9154L58.4302 31.0069L58.6927 31.0933L58.9488 31.1749L59.1984 31.2516L59.4414 31.3236L59.6775 31.3911L59.9067 31.454L60.1286 31.5127L60.3433 31.5671L60.5505 31.6174L60.7501 31.6637L60.942 31.7063L61.126 31.7452L61.302 31.7805L61.4699 31.8125L61.6295 31.8413L61.7808 31.867L61.9237 31.8897L62.058 31.9098L62.1837 31.9273L62.3006 31.9424L62.4087 31.9552L62.508 31.966L62.5983 31.9749L62.6795 31.9821L62.7517 31.9878L62.8148 31.9921L62.8687 31.9952L62.9134 31.9974L62.9488 31.9987L62.975 31.9995L62.9919 31.9998L62.9995 31.9999L63 31.9999Z" stroke="#3D2397" stroke-width="5"/>
    </svg>
    