<svg width="46" height="46" viewBox="0 0 46 46" fill="none" xmlns="http://www.w3.org/2000/svg">
<path fill-rule="evenodd" clip-rule="evenodd" d="M44 23L43.9998 31.3602L43.9992 32.6033L43.9981 33.4143L43.9966 34.0308L43.9947 34.5339L43.9924 34.9618L43.9897 35.3358L43.9866 35.6691L43.983 35.9703L43.979 36.2457L43.9746 36.4997L43.9697 36.7356L43.9644 36.9561L43.9587 37.1632L43.9526 37.3586L43.9461 37.5436L43.9391 37.7194L43.9317 37.8869L43.9239 38.0469L43.9156 38.2001L43.9069 38.347L43.8978 38.4882L43.8882 38.6242L43.8782 38.7553L43.8678 38.8818L43.8569 39.0042L43.8456 39.1226L43.8338 39.2373L43.8216 39.3485L43.809 39.4565L43.7959 39.5614L43.7823 39.6633L43.7683 39.7625L43.7539 39.8591L43.739 39.9532L43.7236 40.0449L43.7078 40.1344L43.6915 40.2217L43.6747 40.3069L43.6575 40.3901L43.6398 40.4714L43.6216 40.5509L43.6029 40.6287L43.5838 40.7047L43.5642 40.7791L43.544 40.852L43.5234 40.9233L43.5023 40.9931L43.4807 41.0615L43.4586 41.1286L43.436 41.1943L43.4129 41.2587L43.3893 41.3218L43.3651 41.3838L43.3405 41.4445L43.3153 41.5041L43.2895 41.5626L43.2632 41.62L43.2364 41.6763L43.209 41.7316L43.1811 41.7858L43.1526 41.8391L43.1235 41.8914L43.0939 41.9427L43.0637 41.9932L43.0329 42.0427L43.0015 42.0913L42.9695 42.1391L42.9369 42.186L42.9037 42.2321L42.8699 42.2773L42.8354 42.3218L42.8003 42.3654L42.7645 42.4083L42.7281 42.4505L42.691 42.4919L42.6532 42.5325L42.6147 42.5724L42.5756 42.6117L42.5357 42.6502L42.4951 42.688L42.4538 42.7251L42.4117 42.7616L42.3689 42.7974L42.3253 42.8326L42.2809 42.8671L42.2357 42.901L42.1897 42.9343L42.1428 42.9669L42.0951 42.999L42.0466 43.0304L41.9971 43.0613L41.9468 43.0915L41.8955 43.1212L41.8433 43.1503L41.7901 43.1789L41.7359 43.2068L41.6807 43.2342L41.6245 43.2611L41.5672 43.2874L41.5088 43.3132L41.4493 43.3385L41.3887 43.3632L41.3268 43.3874L41.2638 43.4111L41.1995 43.4342L41.1339 43.4569L41.0669 43.479L40.9986 43.5006L40.9289 43.5218L40.8577 43.5424L40.785 43.5626L40.7107 43.5822L40.6348 43.6014L40.5572 43.6201L40.4778 43.6383L40.3967 43.6561L40.3136 43.6733L40.2285 43.6901L40.1414 43.7065L40.0521 43.7223L39.9606 43.7378L39.8667 43.7527L39.7703 43.7672L39.6713 43.7812L39.5696 43.7948L39.4649 43.8079L39.3572 43.8206L39.2463 43.8329L39.1318 43.8447L39.0137 43.856L38.8917 43.8669L38.7655 43.8774L38.6348 43.8874L38.4993 43.897L38.3585 43.9062L38.212 43.9149L38.0593 43.9232L37.8999 43.9311L37.733 43.9385L37.5579 43.9455L37.3737 43.9521L37.1792 43.9583L36.973 43.964L36.7537 43.9693L36.5191 43.9742L36.2666 43.9786L35.9931 43.9827L35.6941 43.9863L35.3637 43.9895L34.9934 43.9922L34.5704 43.9946L34.0744 43.9965L33.469 43.998L32.6786 43.9991L31.4893 43.9998L28.0401 44L14.7774 43.9998L13.4744 43.9992L12.6416 43.9982L12.0134 43.9968L11.503 43.9949L11.0701 43.9926L10.6923 43.9899L10.3562 43.9868L10.0527 43.9833L9.7754 43.9793L9.51987 43.9749L9.28261 43.9701L9.06097 43.9649L8.85285 43.9592L8.65658 43.9531L8.47076 43.9466L8.29427 43.9397L8.12615 43.9323L7.96559 43.9245L7.81189 43.9163L7.66447 43.9076L7.5228 43.8985L7.38644 43.889L7.25498 43.879L7.12808 43.8686L7.00542 43.8578L6.88672 43.8465L6.77173 43.8348L6.66023 43.8226L6.55201 43.81L6.44688 43.7969L6.34468 43.7834L6.24526 43.7695L6.14847 43.755L6.05418 43.7402L5.96228 43.7248L5.87265 43.709L5.78519 43.6928L5.69982 43.676L5.61643 43.6589L5.53496 43.6412L5.45532 43.623L5.37745 43.6044L5.30128 43.5853L5.22674 43.5657L5.15379 43.5457L5.08235 43.5251L5.0124 43.504L4.94387 43.4825L4.87672 43.4604L4.8109 43.4379L4.74639 43.4148L4.68313 43.3912L4.6211 43.3671L4.56026 43.3424L4.50057 43.3173L4.44201 43.2916L4.38455 43.2653L4.32815 43.2386L4.2728 43.2112L4.21846 43.1833L4.16512 43.1549L4.11274 43.1259L4.06132 43.0963L4.01082 43.0661L3.96123 43.0354L3.91253 43.004L3.8647 42.9721L3.81772 42.9395L3.77157 42.9064L3.72625 42.8726L3.68173 42.8381L3.638 42.8031L3.59504 42.7674L3.55285 42.731L3.51141 42.694L3.4707 42.6562L3.43071 42.6178L3.39144 42.5787L3.35287 42.5389L3.31499 42.4984L3.27779 42.4571L3.24126 42.4151L3.20539 42.3723L3.17017 42.3288L3.13559 42.2845L3.10165 42.2393L3.06833 42.1934L3.03563 42.1466L3.00354 42.099L2.97205 42.0505L2.94116 42.0011L2.91085 41.9508L2.88113 41.8996L2.85198 41.8475L2.8234 41.7944L2.79538 41.7403L2.76792 41.6852L2.741 41.629L2.71464 41.5718L2.68881 41.5135L2.66352 41.4541L2.63876 41.3935L2.61452 41.3318L2.5908 41.2688L2.5676 41.2046L2.54492 41.1391L2.52273 41.0723L2.50106 41.0041L2.47988 40.9345L2.4592 40.8634L2.43901 40.7908L2.41931 40.7167L2.40009 40.6409L2.38136 40.5634L2.3631 40.4842L2.34532 40.4032L2.32801 40.3203L2.31118 40.2354L2.29481 40.1484L2.2789 40.0593L2.26346 39.968L2.24847 39.8743L2.23394 39.7781L2.21987 39.6793L2.20625 39.5778L2.19308 39.4734L2.18036 39.3659L2.16808 39.2552L2.15625 39.1411L2.14487 39.0233L2.13392 38.9016L2.12341 38.7757L2.11334 38.6454L2.10371 38.5102L2.09451 38.3699L2.08575 38.2239L2.07741 38.0717L2.06951 37.9129L2.06204 37.7466L2.055 37.5722L2.04838 37.3887L2.0422 37.1951L2.03643 36.9899L2.0311 36.7717L2.02618 36.5384L2.0217 36.2875L2.01763 36.0158L2.01399 35.719L2.01076 35.3914L2.00796 35.0246L2.00559 34.6064L2.00363 34.1173L2.00209 33.5226L2.00097 32.7516L2.00028 31.611L2 28.7895L2.00014 14.9249L2.00071 13.5548L2.00169 12.6987L2.00309 12.0584L2.00492 11.5404L2.00716 11.1023L2.00983 10.7207L2.01291 10.3817L2.01642 10.0758L2.02035 9.79663L2.02471 9.5395L2.02949 9.30089L2.03469 9.07809L2.04031 8.86897L2.04637 8.6718L2.05284 8.4852L2.05975 8.308L2.06709 8.13925L2.07485 7.97811L2.08305 7.82389L2.09167 7.67599L2.10073 7.53388L2.11023 7.39711L2.12016 7.26528L2.13053 7.13802L2.14133 7.01503L2.15258 6.89603L2.16427 6.78075L2.1764 6.66898L2.18898 6.5605L2.20201 6.45514L2.21548 6.35271L2.22941 6.25307L2.24379 6.15607L2.25863 6.06159L2.27393 5.9695L2.28969 5.8797L2.30591 5.79207L2.3226 5.70653L2.33976 5.623L2.35739 5.54137L2.37549 5.46159L2.39407 5.38358L2.41313 5.30728L2.43268 5.23261L2.45271 5.15953L2.47324 5.08798L2.49426 5.01791L2.51577 4.94927L2.53779 4.88201L2.56032 4.81609L2.58336 4.75147L2.60691 4.68812L2.63098 4.62599L2.65557 4.56505L2.6807 4.50528L2.70635 4.44663L2.73255 4.38908L2.75928 4.3326L2.78657 4.27716L2.81441 4.22274L2.84281 4.16932L2.87178 4.11687L2.90132 4.06537L2.93144 4.0148L2.96215 3.96514L2.99345 3.91637L3.02534 3.86847L3.05785 3.82142L3.09097 3.77521L3.12471 3.72982L3.15909 3.68524L3.1941 3.64145L3.22976 3.59843L3.26608 3.55618L3.30307 3.51467L3.34073 3.47391L3.37908 3.43386L3.41813 3.39454L3.45788 3.35591L3.49836 3.31797L3.53957 3.28072L3.58152 3.24414L3.62423 3.20821L3.66771 3.17294L3.71198 3.13832L3.75705 3.10432L3.80293 3.07096L3.84964 3.03821L3.8972 3.00607L3.94562 2.97453L3.99493 2.94359L4.04513 2.91324L4.09626 2.88347L4.14833 2.85427L4.20136 2.82565L4.25538 2.79758L4.31041 2.77008L4.36647 2.74312L4.42359 2.71671L4.4818 2.69084L4.54112 2.66551L4.60159 2.6407L4.66324 2.61642L4.7261 2.59267L4.79021 2.56943L4.85561 2.5467L4.92233 2.52448L4.99042 2.50276L5.05991 2.48154L5.13087 2.46082L5.20333 2.44059L5.27736 2.42085L5.35301 2.4016L5.43033 2.38282L5.5094 2.36453L5.59028 2.34671L5.67304 2.32937L5.75778 2.31249L5.84456 2.29609L5.93348 2.28014L6.02465 2.26466L6.11817 2.24964L6.21415 2.23508L6.31272 2.22097L6.41402 2.20731L6.51819 2.19411L6.62541 2.18135L6.73585 2.16904L6.8497 2.15717L6.96719 2.14575L7.08856 2.13477L7.21408 2.12423L7.34405 2.11412L7.47881 2.10445L7.61874 2.09522L7.76428 2.08642L7.91591 2.07806L8.07422 2.07012L8.23985 2.06261L8.41358 2.05554L8.59631 2.04889L8.78912 2.04267L8.9933 2.03687L9.21042 2.0315L9.44245 2.02655L9.69183 2.02203L9.96173 2.01793L10.2563 2.01425L10.5812 2.011L10.9445 2.00817L11.358 2.00575L11.8405 2.00376L12.4249 2.00219L13.1776 2.00104L14.2738 2.00031L16.7214 2L30.916 2.00011L32.3621 2.00064L33.2429 2.00159L33.8959 2.00296L34.4216 2.00475L34.8651 2.00696L35.2506 2.00959L35.5926 2.01265L35.9009 2.01612L36.182 2.02002L36.4407 2.02434L36.6807 2.02908L36.9047 2.03425L37.1148 2.03984L37.3129 2.04586L37.5003 2.05231L37.6782 2.05918L37.8476 2.06648L38.0093 2.07421L38.1641 2.08237L38.3124 2.09096L38.455 2.09999L38.5922 2.10945L38.7244 2.11934L38.852 2.12968L38.9753 2.14045L39.0946 2.15166L39.2102 2.16331L39.3222 2.17541L39.431 2.18796L39.5366 2.20095L39.6392 2.21439L39.7391 2.22828L39.8363 2.24263L39.931 2.25743L40.0232 2.27269L40.1132 2.28841L40.201 2.3046L40.2867 2.32125L40.3704 2.33837L40.4522 2.35596L40.5321 2.37402L40.6103 2.39257L40.6867 2.41159L40.7615 2.4311L40.8347 2.45109L40.9064 2.47158L40.9766 2.49256L41.0453 2.51404L41.1127 2.53602L41.1787 2.5585L41.2434 2.5815L41.3069 2.60501L41.3691 2.62904L41.4301 2.65359L41.49 2.67867L41.5487 2.70428L41.6064 2.73043L41.6629 2.75713L41.7185 2.78437L41.7729 2.81217L41.8264 2.84052L41.879 2.86945L41.9306 2.89894L41.9812 2.92902L42.0309 2.95968L42.0798 2.99093L42.1277 3.02278L42.1749 3.05523L42.2211 3.0883L42.2666 3.122L42.3112 3.15632L42.3551 3.19128L42.3982 3.22689L42.4405 3.26316L42.482 3.30009L42.5229 3.3377L42.563 3.37599L42.6023 3.41498L42.641 3.45468L42.679 3.4951L42.7163 3.53625L42.753 3.57815L42.7889 3.6208L42.8243 3.66422L42.8589 3.70842L42.893 3.75342L42.9264 3.79924L42.9592 3.84588L42.9914 3.89337L43.023 3.94173L43.054 3.99096L43.0844 4.0411L43.1142 4.09215L43.1434 4.14414L43.1721 4.1971L43.2002 4.25103L43.2277 4.30598L43.2547 4.36196L43.2812 4.41899L43.3071 4.47711L43.3325 4.53635L43.3573 4.59673L43.3817 4.65828L43.4055 4.72105L43.4287 4.78506L43.4515 4.85035L43.4738 4.91696L43.4955 4.98494L43.5168 5.05432L43.5375 5.12516L43.5578 5.1975L43.5776 5.2714L43.5969 5.34692L43.6157 5.4241L43.634 5.50303L43.6519 5.58376L43.6693 5.66638L43.6862 5.75095L43.7026 5.83756L43.7186 5.92632L43.7341 6.0173L43.7492 6.11062L43.7638 6.2064L43.7779 6.30476L43.7916 6.40584L43.8048 6.50978L43.8176 6.61675L43.83 6.72692L43.8419 6.8405L43.8533 6.95769L43.8644 7.07874L43.8749 7.20392L43.8851 7.33353L43.8948 7.46789L43.9041 7.6074L43.9129 7.75247L43.9213 7.9036L43.9293 8.06135L43.9368 8.22637L43.9439 8.39942L43.9506 8.5814L43.9568 8.77336L43.9627 8.97658L43.9681 9.19261L43.9731 9.42337L43.9776 9.67126L43.9817 9.93939L43.9855 10.2318L43.9887 10.5541L43.9916 10.9139L43.9941 11.3228L43.9961 11.7989L43.9977 12.3734L43.9989 13.1087L43.9996 14.1644L44 16.3496L44 23Z" stroke="#3D2397" stroke-width="3"/>
</svg>
