<svg width="50" height="50" viewBox="0 0 50 50" fill="#bd3fbf" xmlns="http://www.w3.org/2000/svg">
<path d="M25 50L17.5885 42.6991H7.30089V32.4115L0 25L7.30089 17.5885V7.30089H17.5885L25 0L32.4115 7.30089H42.6991V17.5885L50 25L42.6991 32.4115V42.6991H32.4115L25 50ZM25 43.8053L30.531 38.2743H38.2743V30.531L43.8053 25L38.2743 19.469V11.7257H30.531L25 6.19469L19.469 11.7257H11.7257V19.469L6.19469 25L11.7257 30.531V38.2743H19.469L25 43.8053ZM18.5288 34.4027L25 30.4757L31.4712 34.4027L29.7566 27.0465L35.5089 22.0686L27.9314 21.4602L25 14.4912L22.0686 21.4602L14.4912 22.0686L20.2434 27.0465L18.5288 34.4027Z"/>
</svg>
