<svg width="583" height="614" viewBox="0 0 583 614" fill="none" xmlns="http://www.w3.org/2000/svg">
<path fill-rule="evenodd" clip-rule="evenodd" d="M765 385.482L764.823 387.379L764.293 389.27L763.417 391.152L762.201 393.017L760.659 394.864L758.806 396.685L756.659 398.479L754.241 400.24L751.574 401.967L748.686 403.658L745.603 405.309L742.358 406.921L738.98 408.492L735.504 410.024L731.963 411.517L728.392 412.974L724.824 414.396L721.296 415.787L717.84 417.152L714.49 418.493L711.277 419.817L708.233 421.129L705.385 422.434L702.76 423.74L700.383 425.051L698.274 426.376L696.453 427.72L694.934 429.091L693.731 430.494L692.853 431.937L692.305 433.424L692.09 434.963L692.207 436.556L692.651 438.21L693.415 439.928L694.486 441.712L695.851 443.565L697.493 445.488L699.39 447.482L701.52 449.547L703.858 451.68L706.377 453.879L709.046 456.141L711.836 458.462L714.714 460.836L717.646 463.257L720.601 465.718L723.543 468.212L726.439 470.73L729.256 473.263L731.962 475.801L734.524 478.336L736.915 480.856L739.104 483.351L741.067 485.811L742.779 488.225L744.219 490.584L745.368 492.878L746.212 495.097L746.737 497.232L746.934 499.277L746.797 501.222L746.322 503.063L745.511 504.793L744.368 506.409L742.898 507.907L741.114 509.286L739.027 510.545L736.655 511.685L734.016 512.708L731.132 513.617L728.026 514.418L724.726 515.116L721.258 515.718L717.652 516.234L713.938 516.673L710.148 517.045L706.314 517.363L702.467 517.638L698.641 517.884L694.866 518.116L691.174 518.346L687.594 518.59L684.155 518.862L680.885 519.177L677.807 519.549L674.945 519.992L672.32 520.52L669.949 521.146L667.847 521.881L666.028 522.736L664.5 523.721L663.269 524.846L662.339 526.116L661.71 527.539L661.378 529.117L661.338 530.854L661.58 532.75L662.092 534.804L662.859 537.014L663.865 539.376L665.088 541.883L666.508 544.527L668.1 547.299L669.838 550.187L671.696 553.18L673.645 556.264L675.657 559.422L677.702 562.64L679.749 565.9L681.77 569.183L683.735 572.473L685.615 575.749L687.383 578.992L689.012 582.185L690.478 585.307L691.756 588.34L692.826 591.267L693.668 594.071L694.267 596.735L694.607 599.244L694.678 601.586L694.47 603.749L693.978 605.721L693.197 607.495L692.129 609.064L690.775 610.424L689.142 611.571L687.236 612.507L685.07 613.231L682.656 613.75L680.009 614.067L677.149 614.193L674.094 614.137L670.866 613.911L667.487 613.53L663.984 613.009L660.38 612.366L656.702 611.619L652.976 610.79L649.23 609.898L645.489 608.966L641.781 608.016L638.131 607.072L634.564 606.157L631.104 605.293L627.772 604.503L624.591 603.809L621.579 603.233L618.752 602.795L616.127 602.513L613.715 602.406L611.528 602.488L609.573 602.775L607.855 603.277L606.378 604.005L605.141 604.965L604.143 606.164L603.379 607.603L602.841 609.282L602.521 611.2L602.407 613.351L602.486 615.727L602.74 618.32L603.155 621.115L603.71 624.099L604.387 627.255L605.163 630.563L606.016 634.005L606.925 637.557L607.866 641.195L608.816 644.896L609.752 648.633L610.652 652.381L611.493 656.111L612.254 659.799L612.915 663.417L613.457 666.938L613.861 670.338L614.113 673.592L614.197 676.676L614.101 679.569L613.814 682.251L613.328 684.703L612.637 686.91L611.735 688.858L610.622 690.536L609.296 691.934L607.76 693.048L606.018 693.874L604.077 694.413L601.944 694.666L599.63 694.639L597.146 694.341L594.506 693.783L591.724 692.978L588.816 691.943L585.798 690.696L582.689 689.259L579.507 687.654L576.27 685.907L572.998 684.042L569.71 682.089L566.424 680.075L563.159 678.03L559.934 675.983L556.765 673.963L553.669 672.002L550.661 670.128L547.754 668.368L544.963 666.751L542.298 665.303L539.769 664.046L537.384 663.005L535.15 662.198L533.07 661.644L531.149 661.359L529.387 661.353L527.783 661.638L526.337 662.219L525.042 663.102L523.895 664.284L522.888 665.766L522.013 667.539L521.259 669.597L520.617 671.926L520.075 674.512L519.619 677.338L519.236 680.382L518.913 683.624L518.635 687.038L518.388 690.597L518.156 694.274L517.926 698.038L517.683 701.858L517.413 705.704L517.103 709.542L516.74 713.342L516.313 717.07L515.81 720.695L515.222 724.187L514.54 727.516L513.756 730.654L512.865 733.575L511.86 736.255L510.739 738.671L509.499 740.805L508.14 742.638L506.66 744.159L505.063 745.355L503.351 746.219L501.527 746.747L499.598 746.938L497.569 746.794L495.448 746.321L493.242 745.527L490.959 744.425L488.61 743.03L486.204 741.36L483.751 739.436L481.261 737.281L478.744 734.921L476.211 732.383L473.673 729.698L471.138 726.897L468.618 724.011L466.119 721.074L463.652 718.119L461.225 715.181L458.843 712.292L456.513 709.486L454.242 706.795L452.032 704.251L449.888 701.882L447.813 699.716L445.808 697.78L443.873 696.097L442.009 694.686L440.214 693.567L438.486 692.754L436.823 692.258L435.22 692.089L433.673 692.251L432.178 692.746L430.729 693.571L429.32 694.723L427.944 696.192L426.596 697.966L425.269 700.031L423.955 702.367L422.65 704.954L421.345 707.768L420.034 710.783L418.713 713.971L417.375 717.301L416.014 720.743L414.628 724.262L413.21 727.825L411.76 731.399L410.272 734.947L408.747 738.436L407.182 741.831L405.577 745.1L403.932 748.211L402.248 751.132L400.526 753.836L398.77 756.296L396.981 758.487L395.164 760.389L393.322 761.981L391.459 763.25L389.58 764.181L387.689 764.767L385.793 765L383.896 764.879L382.004 764.406L380.12 763.584L378.252 762.421L376.402 760.93L374.577 759.126L372.778 757.024L371.011 754.647L369.279 752.019L367.583 749.163L365.925 746.11L364.307 742.888L362.729 739.529L361.191 736.066L359.692 732.533L358.23 728.964L356.802 725.394L355.406 721.857L354.038 718.387L352.693 715.018L351.367 711.781L350.054 708.708L348.748 705.827L347.443 703.165L346.133 700.746L344.811 698.593L343.47 696.725L342.104 695.157L340.706 693.903L339.27 692.973L337.79 692.372L336.261 692.104L334.676 692.169L333.032 692.561L331.325 693.274L329.552 694.297L327.71 695.617L325.798 697.216L323.815 699.074L321.762 701.169L319.64 703.476L317.451 705.967L315.199 708.615L312.887 711.387L310.521 714.253L308.108 717.18L305.652 720.133L303.163 723.079L300.649 725.985L298.117 728.817L295.579 731.543L293.044 734.13L290.521 736.55L288.021 738.773L285.555 740.774L283.132 742.527L280.764 744.012L278.46 745.209L276.228 746.103L274.079 746.679L272.02 746.929L270.058 746.845L268.2 746.424L266.452 745.667L264.818 744.575L263.301 743.157L261.903 741.422L260.625 739.382L259.466 737.054L258.425 734.456L257.498 731.61L256.68 728.538L255.966 725.266L255.349 721.823L254.82 718.237L254.37 714.538L253.988 710.758L253.663 706.929L253.381 703.082L253.131 699.25L252.898 695.465L252.669 691.757L252.428 688.157L252.162 684.694L251.854 681.395L251.492 678.285L251.061 675.387L250.548 672.722L249.939 670.31L249.222 668.164L248.387 666.299L247.423 664.724L246.321 663.446L245.074 662.468L243.676 661.791L242.123 661.412L240.412 661.326L238.541 661.524L236.512 661.994L234.326 662.722L231.989 663.69L229.505 664.881L226.882 666.27L224.13 667.837L221.259 669.553L218.282 671.394L215.212 673.331L212.064 675.335L208.855 677.376L205.601 679.425L202.32 681.453L199.031 683.429L195.751 685.324L192.501 687.112L189.3 688.765L186.165 690.258L183.117 691.567L180.172 692.672L177.347 693.552L174.66 694.191L172.125 694.573L169.756 694.687L167.564 694.524L165.561 694.077L163.755 693.343L162.153 692.32L160.76 691.012L159.578 689.422L158.609 687.559L157.851 685.434L157.301 683.058L156.951 680.447L156.796 677.619L156.824 674.594L157.023 671.391L157.381 668.035L157.881 664.55L158.506 660.96L159.237 657.292L160.055 653.572L160.938 649.827L161.865 646.084L162.813 642.369L163.76 638.707L164.681 635.125L165.555 631.646L166.358 628.293L167.068 625.086L167.664 622.046L168.126 619.189L168.434 616.53L168.57 614.084L168.519 611.86L168.266 609.867L167.799 608.112L167.108 606.596L166.185 605.321L165.024 604.285L163.624 603.484L161.982 602.911L160.102 602.557L157.988 602.411L155.647 602.46L153.089 602.687L150.325 603.078L147.37 603.612L144.24 604.271L140.955 605.032L137.533 605.875L133.997 606.777L130.371 607.714L126.679 608.664L122.946 609.604L119.198 610.511L115.463 611.363L111.767 612.138L108.137 612.816L104.598 613.378L101.177 613.806L97.8989 614.083L94.7862 614.194L91.8614 614.128L89.1448 613.872L86.6549 613.419L84.408 612.76L82.4181 611.892L80.697 610.812L79.2535 609.52L78.0939 608.017L77.2218 606.308L76.6378 604.398L76.3396 602.295L76.3223 600.009L76.5779 597.551L77.0957 594.935L77.8623 592.174L78.8618 589.285L80.076 586.283L81.4841 583.188L83.0636 580.016L84.7901 576.786L86.6376 573.518L88.5786 570.231L90.5849 566.944L92.6272 563.675L94.6759 560.442L96.7013 557.262L98.6737 554.153L100.564 551.13L102.343 548.207L103.985 545.396L105.462 542.71L106.75 540.159L107.827 537.75L108.673 535.491L109.268 533.387L109.597 531.44L109.648 529.653L109.41 528.024L108.876 526.553L108.042 525.234L106.907 524.064L105.473 523.035L103.745 522.139L101.733 521.367L99.4459 520.708L96.8997 520.151L94.1111 519.682L91.0998 519.289L87.888 518.957L84.4999 518.673L80.962 518.422L77.3024 518.188L73.5506 517.959L69.7371 517.719L65.8935 517.454L62.0519 517.151L58.2443 516.798L54.5029 516.382L50.8592 515.892L47.3441 515.318L43.9872 514.651L40.8168 513.884L37.8596 513.01L35.1401 512.023L32.6806 510.921L30.5011 509.7L28.6186 508.359L27.0476 506.899L25.7993 505.32L24.8818 503.626L24.3 501.82L24.0554 499.907L24.1463 497.894L24.5676 495.787L25.311 493.593L26.3648 491.322L27.7143 488.983L29.3419 486.585L31.2271 484.139L33.347 481.654L35.6762 479.14L38.1871 476.61L40.8505 474.071L43.6356 471.535L46.5101 469.012L49.4412 466.509L52.3953 464.037L55.3386 461.602L58.2375 459.212L61.0587 456.874L63.7698 454.593L66.3396 452.373L68.7383 450.219L70.9377 448.132L72.9119 446.116L74.6371 444.17L76.0922 442.294L77.2589 440.488L78.1217 438.75L78.6685 437.076L78.8902 435.464L78.7813 433.909L78.3395 432.406L77.566 430.949L76.4657 429.534L75.0466 428.154L73.3201 426.802L71.301 425.471L69.0069 424.156L66.4584 422.85L63.6789 421.545L60.694 420.236L57.5318 418.917L54.2221 417.581L50.7964 416.225L47.2874 414.842L43.7288 413.43L40.155 411.985L36.6006 410.504L33.1001 408.984L29.6876 407.425L26.3964 405.827L23.2586 404.188L20.3051 402.51L17.5648 400.794L15.0645 399.043L12.829 397.26L10.8802 395.447L9.23721 393.608L7.91636 391.748L6.93062 389.871L6.28973 387.982L6 386.086L6.0643 384.189L6.48199 382.295L7.24895 380.41L8.35762 378.539L9.79704 376.686L11.553 374.856L13.6083 373.053L15.9426 371.281L18.5329 369.543L21.3539 367.841L24.3777 366.177L27.5748 364.553L30.9138 362.968L34.3622 361.424L37.8862 359.918L41.4517 358.45L45.0239 357.018L48.5685 355.617L52.0511 354.244L55.4384 352.896L58.6982 351.567L61.7994 350.252L64.7128 348.945L67.4113 347.641L69.87 346.332L72.0666 345.012L73.9814 343.675L75.5978 342.313L76.9024 340.921L77.8848 339.491L78.5383 338.019L78.8593 336.497L78.8478 334.922L78.5073 333.287L77.8446 331.591L76.8698 329.828L75.5965 327.997L74.0411 326.096L72.2229 324.125L70.1641 322.083L67.8893 319.971L65.4252 317.793L62.8005 315.55L60.0458 313.248L57.1926 310.89L54.2737 308.483L51.3226 306.034L48.373 303.55L45.4585 301.038L42.6127 298.509L39.8682 295.971L37.2566 293.435L34.8083 290.909L32.5521 288.405L30.5145 285.932L28.7202 283.502L27.1913 281.125L25.9473 278.809L25.0046 276.565L24.377 274.402L24.0748 272.328L24.1052 270.35L24.4721 268.476L25.1761 266.71L26.2145 265.057L27.581 263.521L29.2665 262.104L31.2586 260.807L33.5419 259.629L36.0981 258.569L38.9067 257.624L41.9442 256.79L45.1854 256.06L48.6031 255.428L52.1684 254.885L55.8511 254.423L59.6202 254.031L63.4439 253.697L67.29 253.41L71.1263 253.156L74.921 252.921L78.6429 252.692L82.2617 252.454L85.7483 252.193L89.0754 251.893L92.2171 251.541L95.1501 251.122L97.8528 250.622L100.307 250.029L102.495 249.33L104.406 248.514L106.028 247.571L107.354 246.492L108.38 245.269L109.104 243.895L109.53 242.367L109.663 240.681L109.509 238.836L109.082 236.831L108.394 234.67L107.462 232.356L106.306 229.895L104.946 227.294L103.407 224.562L101.712 221.709L99.8892 218.748L97.9658 215.691L95.9708 212.555L93.9335 209.354L91.8836 206.106L89.851 202.828L87.8651 199.539L85.9548 196.256L84.1481 193L82.4721 189.79L80.952 186.643L79.6118 183.579L78.4732 180.617L77.5562 177.772L76.8782 175.062L76.4542 172.502L76.2966 170.105L76.415 167.884L76.8165 165.85L77.505 164.012L78.4816 162.377L79.7448 160.95L81.29 159.735L83.1098 158.732L85.1944 157.941L87.5313 157.357L90.1055 156.977L92.8999 156.791L95.8954 156.79L99.0709 156.964L102.404 157.297L105.87 157.775L109.445 158.381L113.102 159.097L116.816 159.902L120.558 160.777L124.304 161.698L128.025 162.645L131.696 163.593L135.292 164.52L138.789 165.403L142.164 166.219L145.395 166.945L148.463 167.561L151.351 168.046L154.042 168.379L156.522 168.544L158.782 168.523L160.812 168.303L162.606 167.871L164.16 167.216L165.473 166.331L166.547 165.208L167.385 163.846L167.994 162.243L168.382 160.4L168.56 158.323L168.541 156.018L168.341 153.493L167.975 150.761L167.463 147.835L166.823 144.732L166.076 141.47L165.245 138.068L164.351 134.549L163.418 130.936L162.468 127.252L161.525 123.524L160.611 119.777L159.749 116.038L158.96 112.333L158.265 108.691L157.684 105.136L157.234 101.694L156.932 98.3914L156.793 95.2507L156.83 92.2944L157.055 89.5432L157.477 87.016L158.102 84.7293L158.936 82.6976L159.982 80.9329L161.241 79.4446L162.71 78.2395L164.387 77.3214L166.265 76.6916L168.338 76.3482L170.596 76.2866L173.027 76.4994L175.619 76.9762L178.357 77.7042L181.227 78.6679L184.212 79.8492L187.294 81.228L190.455 82.7818L193.676 84.4867L196.939 86.3167L200.224 88.2448L203.513 90.2427L206.786 92.2813L210.026 94.3311L213.215 96.3623L216.336 98.3452L219.374 100.25L222.314 102.049L225.143 103.715L227.849 105.22L230.423 106.54L232.854 107.652L235.137 108.535L237.267 109.172L239.239 109.544L241.051 109.64L242.705 109.449L244.201 108.962L245.544 108.176L246.737 107.089L247.788 105.702L248.704 104.021L249.495 102.053L250.172 99.8087L250.745 97.3027L251.227 94.5514L251.631 91.574L251.971 88.3924L252.262 85.0306L252.518 81.5146L252.753 77.8723L252.982 74.133L253.219 70.3271L253.479 66.4861L253.775 62.6418L254.12 58.8265L254.525 55.0723L255.003 51.4108L255.563 47.8731L256.214 44.4889L256.965 41.2869L257.821 38.294L258.789 35.5349L259.873 33.0325L261.075 30.8071L262.396 28.8763L263.838 27.2547L265.398 25.9544L267.074 24.9837L268.862 24.3482L270.758 24.05L272.756 24.0877L274.849 24.4569L277.029 25.1497L279.288 26.1549L281.617 27.4585L284.006 29.0432L286.445 30.8889L288.925 32.9732L291.434 35.2709L293.963 37.7549L296.501 40.3961L299.037 43.164L301.564 46.0266L304.07 48.951L306.548 51.9038L308.989 54.8512L311.386 57.7595L313.733 60.5953L316.023 63.3262L318.253 65.9207L320.418 68.3486L322.515 70.5816L324.543 72.5934L326.5 74.3598L328.387 75.8593L330.203 77.0731L331.952 77.9853L333.636 78.5831L335.258 78.8571L336.822 78.801L338.333 78.4122L339.796 77.6913L341.218 76.6426L342.603 75.2735L343.959 73.595L345.292 71.6213L346.609 69.3696L347.917 66.8601L349.221 64.1156L350.529 61.1615L351.847 58.0255L353.179 54.7371L354.532 51.3276L355.91 47.8295L357.317 44.2764L358.756 40.7026L360.232 37.1426L361.745 33.6311L363.297 30.2022L364.89 26.8894L366.522 23.725L368.194 20.74L369.904 17.9638L371.649 15.4235L373.428 13.1442L375.236 11.1482L377.071 9.45534L378.928 8.08218L380.802 7.0423L382.69 6.34595L384.584 6L386.482 6.00787L388.376 6.36948L390.263 7.08125L392.137 8.13618L393.993 9.52385L395.827 11.2306L397.634 13.2395L399.411 15.5309L401.155 18.0822L402.863 20.8683L404.533 23.8619L406.164 27.0336L407.754 30.3523L409.305 33.7856L410.817 37.2999L412.29 40.8612L413.729 44.4349L415.134 47.9862L416.511 51.4811L417.863 54.8859L419.194 58.1682L420.511 61.2968L421.819 64.2421L423.123 66.9767L424.431 69.4752L425.748 71.715L427.083 73.676L428.44 75.341L429.827 76.696L431.25 77.7303L432.715 78.4365L434.228 78.8106L435.795 78.8519L437.419 78.5634L439.106 77.9514L440.858 77.0255L442.678 75.7987L444.567 74.2869L446.528 72.5091L448.558 70.487L450.659 68.2447L452.827 65.8088L455.059 63.2076L457.352 60.4714L459.701 57.6316L462.101 54.7209L464.544 51.7725L467.023 48.8203L469.53 45.8979L472.057 43.0389L474.594 40.2759L477.132 37.641L479.66 35.1647L482.168 32.8759L484.646 30.8017L487.083 28.9671L489.47 27.3945L491.796 26.1039L494.052 25.1122L496.228 24.4336L498.317 24.079L500.31 24.0561L502.202 24.3693L503.985 25.0197L505.656 26.0052L507.211 27.32L508.647 28.9555L509.963 30.8998L511.16 33.1379L512.238 35.6521L513.201 38.4221L514.053 41.4249L514.799 44.6356L515.446 48.0271L516.002 51.571L516.476 55.2373L516.879 58.9949L517.221 62.8121L517.515 66.6569L517.774 70.4971L518.01 74.3007L518.239 78.0363L518.475 81.6736L518.732 85.1833L519.024 88.5377L519.367 91.7107L519.775 94.6785L520.261 97.4194L520.838 99.9141L521.519 102.146L522.316 104.102L523.238 105.77L524.295 107.144L525.495 108.217L526.844 108.99L528.347 109.464L530.008 109.642L531.828 109.534L533.807 109.149L535.943 108.501L538.233 107.607L540.671 106.485L543.25 105.157L545.962 103.644L548.797 101.972L551.741 100.168L554.783 98.2585L557.908 96.2729L561.099 94.2402L564.341 92.1903L567.615 90.1529L570.904 88.1575L574.189 86.2332L577.45 84.4081L580.669 82.7095L583.827 81.1628L586.905 79.7924L589.885 78.6203L592.749 77.6668L595.482 76.9496L598.067 76.4842L600.49 76.2834L602.74 76.3574L604.804 76.7134L606.674 77.3561L608.342 78.2869L609.802 79.5047L611.051 81.0055L612.087 82.7822L612.912 84.8255L613.528 87.1232L613.941 89.6608L614.157 92.4215L614.186 95.3864L614.04 98.5348L613.731 101.844L613.275 105.291L612.688 108.851L611.988 112.497L611.196 116.203L610.331 119.943L609.416 123.69L608.472 127.417L607.522 131.098L606.59 134.708L605.699 138.222L604.871 141.618L604.129 144.874L603.494 147.969L602.987 150.886L602.629 153.609L602.436 156.125L602.426 158.42L602.613 160.487L603.011 162.319L603.629 163.912L604.478 165.263L605.562 166.375L606.886 167.25L608.451 167.895L610.255 168.318L612.295 168.528L614.565 168.54L617.056 168.368L619.755 168.027L622.651 167.537L625.727 166.915L628.965 166.184L632.346 165.365L635.847 164.48L639.447 163.551L643.121 162.602L646.844 161.657L650.59 160.737L654.332 159.865L658.043 159.063L661.698 158.352L665.268 157.751L668.729 157.279L672.056 156.952L675.224 156.787L678.211 156.795L680.996 156.989L683.56 157.379L685.886 157.972L687.959 158.772L689.767 159.785L691.299 161.009L692.55 162.445L693.514 164.089L694.189 165.936L694.578 167.979L694.684 170.208L694.515 172.612L694.079 175.179L693.39 177.896L692.463 180.746L691.315 183.714L689.966 186.781L688.439 189.931L686.756 193.144L684.944 196.402L683.03 199.685L681.042 202.974L679.007 206.251L676.958 209.498L674.922 212.696L672.929 215.829L671.01 218.881L669.192 221.838L667.504 224.686L665.971 227.412L664.62 230.007L663.474 232.462L662.552 234.77L661.876 236.924L661.46 238.921L661.319 240.759L661.464 242.438L661.903 243.959L662.642 245.326L663.681 246.543L665.02 247.616L666.655 248.553L668.578 249.364L670.779 250.057L673.244 250.646L675.958 251.142L678.9 251.558L682.051 251.907L685.385 252.205L688.879 252.465L692.502 252.702L696.228 252.931L700.025 253.167L703.863 253.422L707.709 253.711L711.531 254.047L715.297 254.442L718.975 254.908L722.534 255.454L725.945 256.09L729.177 256.825L732.205 257.664L735.003 258.614L737.547 259.679L739.818 260.862L741.797 262.165L743.469 263.587L744.821 265.128L745.844 266.786L746.533 268.557L746.885 270.436L746.901 272.418L746.584 274.497L745.942 276.663L744.986 278.91L743.729 281.229L742.188 283.609L740.382 286.041L738.334 288.515L736.069 291.021L733.613 293.547L730.995 296.084L728.245 298.622L725.395 301.15L722.479 303.66L719.528 306.143L716.578 308.591L713.661 310.996L710.812 313.351L708.062 315.651L705.444 317.891L702.987 320.066L700.722 322.175L698.673 324.214L696.866 326.182L695.323 328.08L694.062 329.908L693.101 331.667L692.453 333.361L692.127 334.993L692.13 336.566L692.466 338.085L693.134 339.556L694.131 340.983L695.449 342.374L697.079 343.734L699.007 345.071L701.216 346.39L703.686 347.699L706.394 349.003L709.317 350.31L712.425 351.626L715.692 352.955L719.084 354.305L722.57 355.678L726.116 357.08L729.689 358.515L733.253 359.984L736.775 361.492L740.219 363.038L743.552 364.624L746.743 366.25L749.758 367.915L752.569 369.619L755.149 371.359L757.471 373.133L759.513 374.937L761.256 376.768L762.681 378.622L763.774 380.494L764.526 382.379L764.928 384.273L765 385.482Z" stroke="#3D2397" stroke-opacity="0.25" stroke-width="10"/>
</svg>
