<svg width="30" height="31" viewBox="0 0 30 31" fill="none" xmlns="http://www.w3.org/2000/svg">
<path d="M15 0.170868C6.7335 0.170868 0 6.90436 0 15.1709C0 23.4374 6.7335 30.1709 15 30.1709C23.2665 30.1709 30 23.4374 30 15.1709C30 6.90436 23.2665 0.170868 15 0.170868ZM15 3.17087C21.6452 3.17087 27 8.52568 27 15.1709C27 21.1926 22.598 26.1404 16.8281 27.0185V18.748H20.3203L20.8682 15.2002H16.8281V13.2607C16.8281 11.7862 17.3085 10.4775 18.6885 10.4775H20.9033V7.38083C20.5133 7.32833 19.6903 7.21384 18.1348 7.21384C14.8858 7.21384 12.9814 8.92984 12.9814 12.8388V15.2002H9.6416V18.748H12.9814V26.9892C7.30544 26.0321 3 21.1262 3 15.1709C3 8.52568 8.35482 3.17087 15 3.17087Z" fill="#623AE9"/>
</svg>
