<svg width="98" height="36" viewBox="0 0 98 36" fill="none" xmlns="http://www.w3.org/2000/svg">
<path d="M19.544 0.439999C24.7067 0.439999 28.9093 1.31467 32.152 3.064C35.3947 4.77067 37.016 7.56533 37.016 11.448V24.632C37.016 25.3573 37.1867 25.9547 37.528 26.424C37.8693 26.8933 38.3813 27.128 39.064 27.128H41.368V34.488C41.24 34.5733 40.8987 34.7227 40.344 34.936C39.832 35.1067 39.0853 35.2773 38.104 35.448C37.1227 35.6613 35.992 35.768 34.712 35.768C32.2373 35.768 30.1893 35.4053 28.568 34.68C26.9893 33.912 25.9013 32.8667 25.304 31.544C23.6827 32.824 21.8693 33.848 19.864 34.616C17.8587 35.384 15.512 35.768 12.824 35.768C4.888 35.768 0.92 32.6107 0.92 26.296C0.92 23.0107 1.79467 20.5147 3.544 18.808C5.336 17.0587 7.896 15.864 11.224 15.224C14.552 14.584 18.904 14.264 24.28 14.264V12.6C24.28 11.2773 23.8107 10.2747 22.872 9.592C21.976 8.90933 20.8027 8.568 19.352 8.568C18.0293 8.568 16.8773 8.80267 15.896 9.272C14.9573 9.74133 14.488 10.488 14.488 11.512V11.768H1.944C1.90133 11.5547 1.88 11.256 1.88 10.872C1.88 7.672 3.39467 5.13333 6.424 3.256C9.496 1.37867 13.8693 0.439999 19.544 0.439999ZM24.28 20.28C20.6533 20.28 17.9653 20.6853 16.216 21.496C14.5093 22.264 13.656 23.3093 13.656 24.632C13.656 26.7653 15.1067 27.832 18.008 27.832C19.672 27.832 21.1227 27.384 22.36 26.488C23.64 25.592 24.28 24.4827 24.28 23.16V20.28ZM85.9115 0.439999C89.7515 0.439999 92.6315 1.54933 94.5515 3.768C96.4715 5.944 97.4315 9.05867 97.4315 13.112V35H84.6955V14.648C84.6955 13.1973 84.3328 12.0453 83.6075 11.192C82.9248 10.296 81.9435 9.848 80.6635 9.848C79.1702 9.848 77.9542 10.36 77.0155 11.384C76.0768 12.408 75.6075 13.6667 75.6075 15.16V35H62.8715V14.648C62.8715 13.1973 62.5088 12.0453 61.7835 11.192C61.1008 10.296 60.1195 9.848 58.8395 9.848C57.3462 9.848 56.1302 10.36 55.1915 11.384C54.2528 12.408 53.7835 13.6667 53.7835 15.16V35H41.0475V1.208H51.4795L52.3115 6.264C53.5915 4.472 55.2768 3.064 57.3675 2.04C59.5008 0.973331 61.7408 0.439999 64.0875 0.439999C69.1648 0.439999 72.5782 2.38133 74.3275 6.264C75.6502 4.472 77.3355 3.064 79.3835 2.04C81.4742 0.973331 83.6502 0.439999 85.9115 0.439999Z" fill="white"/>
</svg>
