<svg width="99" height="99" viewBox="0 0 99 99" fill="none" xmlns="http://www.w3.org/2000/svg">
<path fill-rule="evenodd" clip-rule="evenodd" d="M98 49.4998L97.9927 49.4999L97.9709 49.5002L97.9346 49.5011L97.8837 49.5029L97.8184 49.5059L97.7387 49.5103L97.6445 49.5164L97.5361 49.5246L97.4135 49.535L97.2767 49.5481L97.1259 49.564L96.9612 49.583L96.7826 49.6055L96.5903 49.6316L96.3845 49.6617L96.1652 49.6959L95.9327 49.7347L95.687 49.7781L95.4285 49.8265L95.1571 49.8801L94.8732 49.9392L94.5769 50.0039L94.2685 50.0745L93.9481 50.1512L93.6159 50.2343L93.2723 50.3239L92.9173 50.4202L92.5514 50.5235L92.1746 50.6338L91.7874 50.7515L91.3899 50.8767L90.9824 51.0095L90.5651 51.1501L90.1385 51.2986L89.7027 51.4552L89.2581 51.6201L88.8049 51.7932L88.3435 51.9749L87.8741 52.1651L87.3972 52.3639L86.9129 52.5716L86.4216 52.788L85.9237 53.0134L85.4194 53.2477L84.9092 53.4911L84.3933 53.7435L83.872 54.005L83.3458 54.2756L82.8149 54.5554L82.2797 54.8443L81.7406 55.1424L81.1978 55.4496L80.6517 55.7659L80.1028 56.0912L79.5512 56.4256L78.9974 56.769L78.4417 57.1213L77.8845 57.4824L77.326 57.8523L76.7667 58.2308L76.2069 58.618L75.6469 59.0135L75.087 59.4175L74.5276 59.8296L73.9691 60.2499L73.4116 60.6781L72.8557 61.114L72.3015 61.5576L71.7495 62.0086L71.1998 62.4669L70.6529 62.9322L70.109 63.4045L69.5685 63.8834L69.0315 64.3687L68.4985 64.8604L67.9697 65.358L67.4453 65.8614L66.9257 66.3703L66.4111 66.8845L65.9017 67.4037L65.3979 67.9277L64.8998 68.4562L64.4077 68.9889L63.9219 69.5255L63.4424 70.0658L62.9697 70.6094L62.5037 71.1561L62.0449 71.7056L61.5933 72.2575L61.1491 72.8115L60.7126 73.3673L60.2838 73.9246L59.8629 74.4831L59.4501 75.0424L59.0455 75.6023L58.6492 76.1623L58.2614 76.7221L57.8822 77.2815L57.5116 77.84L57.1498 78.3974L56.7968 78.9532L56.4527 79.5072L56.1176 80.0589L55.7915 80.6081L55.4745 81.1544L55.1666 81.6975L54.8678 82.2369L54.5782 82.7724L54.2976 83.3037L54.0263 83.8303L53.764 84.352L53.5109 84.8683L53.2668 85.379L53.0318 85.8838L52.8057 86.3822L52.5886 86.874L52.3802 87.3589L52.1807 87.8364L51.9898 88.3064L51.8075 88.7685L51.6336 89.2223L51.4681 89.6676L51.3109 90.1041L51.1617 90.5315L51.0205 90.9495L50.8871 91.3578L50.7613 91.7561L50.643 92.1442L50.5321 92.5218L50.4283 92.8886L50.3314 93.2444L50.2413 93.589L50.1577 93.9221L50.0805 94.2434L50.0094 94.5528L49.9442 94.8501L49.8847 95.135L49.8307 95.4073L49.7819 95.6669L49.7381 95.9136L49.699 96.1472L49.6643 96.3675L49.6339 96.5744L49.6075 96.7678L49.5848 96.9475L49.5655 97.1133L49.5493 97.2653L49.5361 97.4032L49.5254 97.5269L49.5171 97.6365L49.5108 97.7317L49.5063 97.8126L49.5032 97.8791L49.5013 97.9311L49.5003 97.9686L49.5 97.9916L49.4999 98L49.4999 97.9939L49.4996 97.9732L49.4987 97.938L49.497 97.8883L49.4941 97.8242L49.4899 97.7456L49.4839 97.6526L49.4759 97.5453L49.4656 97.4238L49.4528 97.2882L49.4371 97.1385L49.4183 96.9748L49.3962 96.7973L49.3703 96.6062L49.3406 96.4014L49.3067 96.1832L49.2683 95.9517L49.2252 95.7071L49.1772 95.4495L49.1241 95.1792L49.0655 94.8963L49.0012 94.601L48.9311 94.2935L48.8549 93.974L48.7723 93.6428L48.6832 93.3001L48.5875 92.946L48.4847 92.5809L48.3749 92.205L48.2578 91.8186L48.1333 91.4219L48.0011 91.0152L47.8611 90.5987L47.7132 90.1728L47.5573 89.7378L47.3931 89.2938L47.2206 88.8413L47.0396 88.3805L46.8501 87.9118L46.6519 87.4354L46.445 86.9517L46.2293 86.461L46.0046 85.9636L45.771 85.4598L45.5284 84.95L45.2767 84.4346L45.0159 83.9137L44.746 83.3879L44.467 82.8574L44.1788 82.3225L43.8814 81.7836L43.575 81.2411L43.2594 80.6953L42.9348 80.1466L42.6011 79.5952L42.2584 79.0416L41.9069 78.486L41.5464 77.9289L41.1773 77.3705L40.7994 76.8113L40.4129 76.2515L40.018 75.6914L39.6147 75.1316L39.2032 74.5721L38.7836 74.0135L38.3561 73.4559L37.9207 72.8999L37.4778 72.3455L37.0273 71.7933L36.5696 71.2435L36.1048 70.6963L35.6331 70.1522L35.1548 69.6113L34.6699 69.0741L34.1788 68.5408L33.6816 68.0116L33.1787 67.4869L32.6702 66.9669L32.1564 66.4518L31.6376 65.9421L31.1139 65.4378L30.5858 64.9392L30.0534 64.4466L29.5171 63.9603L28.9771 63.4803L28.4337 63.007L27.8873 62.5405L27.3381 62.0811L26.7864 61.6289L26.2325 61.1841L25.6768 60.747L25.1196 60.3175L24.5612 59.896L24.0019 59.4826L23.4421 59.0773L22.8821 58.6804L22.3222 58.2919L21.7628 57.912L21.2042 57.5407L20.6468 57.1782L20.0908 56.8245L19.5367 56.4797L18.9847 56.1439L18.4353 55.8171L17.8888 55.4993L17.3455 55.1907L16.8057 54.8912L16.2699 54.6008L15.7383 54.3196L15.2113 54.0475L14.6892 53.7845L14.1724 53.5307L13.6612 53.2859L13.156 53.0501L12.6571 52.8233L12.1647 52.6054L11.6793 52.3964L11.2011 52.1962L10.7306 52.0046L10.2678 51.8216L9.81334 51.6471L9.36733 51.4809L8.93012 51.323L8.502 51.1732L8.08327 51.0313L7.6742 50.8973L7.27507 50.771L6.88616 50.6521L6.50773 50.5406L6.14004 50.4362L5.78334 50.3387L5.43787 50.2481L5.10388 50.164L4.78158 50.0863L4.47121 50.0147L4.17298 49.9491L3.88709 49.8892L3.61373 49.8347L3.35311 49.7855L3.1054 49.7413L2.87076 49.7018L2.64938 49.6668L2.44139 49.6361L2.24694 49.6094L2.06617 49.5864L1.89921 49.5668L1.74617 49.5504L1.60715 49.5369L1.48226 49.5261L1.37158 49.5176L1.27519 49.5111L1.19316 49.5065L1.12554 49.5033L1.07238 49.5013L1.03373 49.5003L1.00959 49.4999L1 49.4998L1.00496 49.4998L1.02446 49.4995L1.0585 49.4987L1.10704 49.4971L1.17006 49.4943L1.2475 49.4902L1.33933 49.4843L1.44546 49.4765L1.56583 49.4664L1.70036 49.4538L1.84895 49.4384L2.01149 49.4199L2.18787 49.398L2.37797 49.3724L2.58166 49.343L2.7988 49.3094L3.02923 49.2714L3.2728 49.2288L3.52933 49.1812L3.79864 49.1284L4.08056 49.0702L4.37489 49.0064L4.68142 48.9368L4.99994 48.8611L5.33023 48.779L5.67207 48.6905L6.02522 48.5952L6.38944 48.4931L6.76447 48.3838L7.15007 48.2673L7.54597 48.1434L7.9519 48.0118L8.36759 47.8725L8.79275 47.7252L9.2271 47.5699L9.67034 47.4064L10.1222 47.2345L10.5823 47.0543L11.0504 46.8654L11.5262 46.6679L12.0093 46.4617L12.4995 46.2467L12.9964 46.0227L13.4997 45.7898L14.009 45.5479L14.524 45.297L15.0444 45.0369L15.5699 44.7677L16.1001 44.4894L16.6346 44.2019L17.1731 43.9053L17.7153 43.5996L18.2609 43.2848L18.8094 42.9608L19.3606 42.6279L19.9141 42.2859L20.4695 41.9351L21.0265 41.5754L21.5848 41.2069L22.144 40.8297L22.7037 40.4439L23.2638 40.0496L23.8237 39.647L24.3831 39.2362L24.9419 38.8172L25.4995 38.3903L26.0557 37.9556L26.6102 37.5132L27.1626 37.0633L27.7126 36.6062L28.26 36.142L28.8044 35.6708L29.3455 35.193L29.883 34.7086L30.4167 34.218L30.9462 33.7213L31.4713 33.2188L31.9917 32.7107L32.5071 32.1974L33.0173 31.6789L33.522 31.1557L34.0211 30.6279L34.5141 30.0958L35.001 29.5598L35.4815 29.0201L35.9553 28.477L36.4223 27.9308L36.8823 27.3817L37.3351 26.8302L37.7805 26.2765L38.2182 25.721L38.6483 25.1639L39.0704 24.6056L39.4845 24.0463L39.8905 23.4866L40.2881 22.9265L40.6772 22.3666L41.0578 21.8072L41.4298 21.2485L41.793 20.6909L42.1474 20.1348L42.4929 19.5805L42.8295 19.0284L43.157 18.4788L43.4754 17.932L43.7848 17.3884L44.085 16.8484L44.3762 16.3122L44.6581 15.7802L44.9309 15.2529L45.1946 14.7304L45.4492 14.2132L45.6947 13.7015L45.9312 13.1958L46.1587 12.6964L46.3773 12.2035L46.587 11.7175L46.7879 11.2387L46.9802 10.7675L47.1639 10.3042L47.3391 9.84902L47.5059 9.40232L47.6644 8.9644L47.8149 8.53554L47.9574 8.11605L48.092 7.7062L48.219 7.30627L48.3384 6.91654L48.4506 6.53726L48.5555 6.16871L48.6535 5.81112L48.7447 5.46475L48.8293 5.12983L48.9075 4.8066L48.9795 4.49527L49.0456 4.19606L49.106 3.90917L49.1609 3.63481L49.2105 3.37317L49.2551 3.12442L49.2949 2.88874L49.3303 2.66629L49.3613 2.45723L49.3884 2.2617L49.4117 2.07984L49.4315 1.91177L49.4481 1.75761L49.4618 1.61748L49.4729 1.49146L49.4816 1.37965L49.4882 1.28211L49.4929 1.19894L49.4962 1.13017L49.4983 1.07586L49.4994 1.03604L49.4998 1.01075L49.4999 1L49.4999 1.0038L49.5002 1.02214L49.5009 1.05502L49.5025 1.10241L49.5051 1.16428L49.5092 1.24058L49.5149 1.33126L49.5225 1.43626L49.5324 1.5555L49.5448 1.6889L49.56 1.83637L49.5783 1.99781L49.5999 2.17309L49.6251 2.36211L49.6542 2.56472L49.6875 2.78079L49.7251 3.01017L49.7674 3.2527L49.8146 3.5082L49.8669 3.77651L49.9246 4.05743L49.988 4.35078L50.0572 4.65635L50.1324 4.97392L50.2139 5.30328L50.3019 5.64421L50.3966 5.99647L50.4982 6.35982L50.6069 6.734L50.7228 7.11877L50.8462 7.51386L50.9771 7.919L51.1159 8.33392L51.2625 8.75834L51.4172 9.19197L51.58 9.63451L51.7512 10.0857L51.9308 10.5452L52.1189 11.0126L52.3157 11.4878L52.5213 11.9704L52.7356 12.46L52.9588 12.9564L53.191 13.4592L53.4322 13.968L53.6824 14.4826L53.9418 15.0026L54.2102 15.5277L54.4878 16.0575L54.7745 16.5917L55.0704 17.1299L55.3754 17.6719L55.6895 18.2172L56.0127 18.7655L56.345 19.3164L56.6862 19.8697L57.0364 20.425L57.3954 20.9819L57.7632 21.5401L58.1397 22.0992L58.5248 22.659L58.9183 23.219L59.3203 23.7789L59.7305 24.3385L60.1488 24.8972L60.5751 25.455L61.0092 26.0113L61.451 26.5659L61.9002 27.1185L62.3568 27.6688L62.8205 28.2164L63.2911 28.761L63.7684 29.3024L64.2523 29.8402L64.7424 30.3742L65.2386 30.904L65.7406 31.4295L66.2483 31.9503L66.7612 32.4661L67.2793 32.9767L67.8022 33.4819L68.3296 33.9814L68.8613 34.475L69.397 34.9623L69.9365 35.4433L70.4793 35.9177L71.0253 36.3853L71.5741 36.8458L72.1254 37.2992L72.679 37.7451L73.2344 38.1835L73.7914 38.6142L74.3496 39.037L74.9088 39.4517L75.4685 39.8583L76.0285 40.2566L76.5884 40.6464L77.148 41.0277L77.7067 41.4004L78.2644 41.7643L78.8206 42.1194L79.375 42.4656L79.9273 42.8029L80.4772 43.1311L81.0242 43.4503L81.5681 43.7604L82.1084 44.0614L82.6449 44.3532L83.1772 44.6359L83.7049 44.9094L84.2278 45.1738L84.7455 45.4292L85.2576 45.6754L85.7637 45.9126L86.2637 46.1408L86.7571 46.3601L87.2437 46.5705L87.723 46.7721L88.1948 46.9651L88.6588 47.1495L89.1146 47.3253L89.562 47.4928L90.0007 47.652L90.4303 47.8031L90.8505 47.9462L91.2611 48.0815L91.6619 48.2091L92.0524 48.3291L92.4325 48.4418L92.8019 48.5473L93.1604 48.6458L93.5077 48.7375L93.8435 48.8227L94.1677 48.9014L94.48 48.9739L94.7802 49.0405L95.068 49.1013L95.3434 49.1566L95.6061 49.2066L95.8558 49.2516L96.0926 49.2918L96.3161 49.3275L96.5262 49.3589L96.7228 49.3862L96.9058 49.4098L97.0749 49.4299L97.2302 49.4468L97.3715 49.4607L97.4986 49.472L97.6116 49.4809L97.7102 49.4876L97.7946 49.4925L97.8645 49.4959L97.9199 49.498L97.9609 49.4992L97.9874 49.4997L97.9993 49.4998L98 49.4998Z" stroke="#3D2397" stroke-width="5"/>
</svg>
