<svg width="30" height="34" viewBox="0 0 30 34" fill="none" xmlns="http://www.w3.org/2000/svg">
<path d="M12 0.170868C5.496 0.170868 0 5.33127 0 11.4403V16.6651C0 21.7225 1.53457 25.0158 4.68457 26.6946V30.1312C4.68457 31.2977 5.38153 32.3435 6.45703 32.7975C6.82303 32.9514 7.20832 33.028 7.59082 33.028C8.33182 33.028 9.06023 32.7445 9.61523 32.2083L14.0566 27.9374H18.6592C24.9127 27.9374 30 22.8801 30 16.6651V11.4403C30 5.22523 24.9112 0.170868 18.6592 0.170868H12ZM12 3.15815H18.6621C23.2611 3.15815 27.0029 6.87271 27.0029 11.4403V16.6651C27.0029 21.2341 23.2596 24.9501 18.6621 24.9501H13.4531C13.0646 24.9501 12.6907 25.0998 12.4102 25.3702L7.68457 29.9153V25.7436C7.68457 25.1327 7.30828 24.5834 6.73828 24.3579C4.18678 23.3452 3 20.901 3 16.6651V11.4403C3 7.02805 7.206 3.15815 12 3.15815ZM16.5 4.65179C16.086 4.65179 15.75 4.98636 15.75 5.3986C15.75 5.81085 16.086 6.14542 16.5 6.14542C20.9205 6.14542 24 10.0812 24 13.6136C24 14.0259 24.336 14.3604 24.75 14.3604C25.164 14.3604 25.5 14.0259 25.5 13.6136C25.5 9.37467 21.804 4.65179 16.5 4.65179ZM9.00293 6.16001C8.64555 6.10643 8.26753 6.19091 7.95703 6.4284L7.0752 7.1052C6.0342 7.90131 5.70204 9.30669 6.29004 10.4717C7.39704 12.6629 9.25191 16.0392 10.8164 17.4761C12.7394 19.2445 15.7608 21.3406 18.3018 22.3712C19.4133 22.8223 20.6858 22.5048 21.4658 21.5982C21.7433 21.2755 22.0025 20.9473 22.2275 20.6501C22.688 20.0407 22.5541 19.1771 21.9316 18.7305L19.125 16.7205C18.522 16.2888 17.6796 16.4078 17.2266 16.9918L16.7549 17.5111C16.4429 17.8546 15.9731 18.0354 15.5156 17.9428C14.8016 17.7995 13.6698 17.3352 12.3633 15.9416C11.2848 14.7945 10.6795 13.5737 10.459 12.7239C10.327 12.216 10.5095 11.6859 10.916 11.3498L11.3877 10.9589C11.9382 10.5048 12.0463 9.70932 11.6338 9.12979L9.92285 6.72304C9.69785 6.40564 9.3603 6.21359 9.00293 6.16001ZM16.5 7.63906C16.086 7.63906 15.75 7.97364 15.75 8.38588C15.75 8.79813 16.086 9.1327 16.5 9.1327C18.771 9.1327 21 11.3523 21 13.6136C21 14.0259 21.336 14.3604 21.75 14.3604C22.164 14.3604 22.5 14.0259 22.5 13.6136C22.5 10.5427 19.584 7.63906 16.5 7.63906ZM16.5 10.6263C16.086 10.6263 15.75 10.9609 15.75 11.3732C15.75 11.7854 16.086 12.12 16.5 12.12C17.4675 12.12 18 12.6502 18 13.6136C18 14.0259 18.336 14.3604 18.75 14.3604C19.164 14.3604 19.5 14.0259 19.5 13.6136C19.5 11.8272 18.294 10.6263 16.5 10.6263Z" fill="#623AE9"/>
</svg>
